<?xml version="1.0" standalone="no"?>
<!DOCTYPE svg PUBLIC "-//W3C//DTD SVG 20010904//EN"
 "http://www.w3.org/TR/2001/REC-SVG-20010904/DTD/svg10.dtd">
<svg version="1.0" xmlns="http://www.w3.org/2000/svg"
 width="750.000000pt" height="500.000000pt" viewBox="0 0 750.000000 500.000000"
 preserveAspectRatio="xMidYMid meet">

<g transform="translate(0.000000,500.000000) scale(0.100000,-0.100000)"
fill="#000000" stroke="none">
<path d="M0 4735 c0 -146 4 -265 8 -265 5 0 17 9 27 20 24 27 35 25 35 -5 0
-20 -6 -25 -35 -31 -31 -5 -35 -10 -35 -36 0 -29 2 -30 30 -24 25 4 30 2 30
-14 0 -10 -5 -22 -10 -25 -26 -16 -51 -87 -48 -138 l3 -52 25 40 c18 28 26 35
28 23 5 -24 31 -26 77 -7 47 21 149 39 218 39 43 0 47 2 47 23 0 13 11 34 25
47 l25 23 0 -36 c0 -43 5 -47 50 -38 l35 7 2 83 c1 64 6 88 18 100 16 15 17
11 11 -54 -4 -38 -9 -83 -12 -98 -6 -27 -4 -28 33 -26 75 3 83 8 83 47 l0 36
24 -34 c22 -32 27 -35 77 -35 52 0 54 -1 64 -33 9 -32 11 -33 45 -27 19 3 41
14 47 23 7 9 20 27 29 39 9 13 32 25 50 29 19 3 34 8 34 9 0 2 -11 25 -24 52
-23 46 -49 178 -39 196 3 5 30 -40 59 -100 66 -131 80 -148 123 -138 25 5 31
11 31 34 0 15 -6 33 -12 39 -10 10 -10 14 0 21 10 6 14 47 15 159 3 158 10
188 42 162 8 -7 15 -28 15 -49 0 -24 9 -49 25 -71 28 -38 32 -48 11 -31 -19
16 -26 -5 -26 -75 l0 -54 59 0 59 0 7 53 c4 28 9 86 10 127 1 60 5 76 18 78
11 2 19 -6 23 -24 8 -33 -6 -236 -21 -311 l-7 -33 43 0 c24 1 64 5 89 11 25 6
59 13 75 16 17 3 35 10 41 14 8 6 13 2 17 -12 4 -16 11 -20 23 -15 10 4 43 9
75 13 l57 6 7 106 c8 135 9 138 50 186 33 39 35 40 50 20 26 -34 59 -99 61
-120 1 -11 -7 -31 -17 -44 -23 -29 -25 -45 -4 -37 12 4 15 -4 15 -44 l0 -50
54 0 c35 0 56 5 59 13 3 9 7 9 20 -1 9 -8 21 -11 27 -7 18 11 11 81 -11 109
-20 25 -20 28 -5 51 9 14 21 25 26 25 5 0 7 6 4 14 -5 14 42 122 58 132 5 4 7
-59 3 -160 l-6 -166 30 0 c35 0 41 13 41 88 0 107 11 159 34 170 11 5 23 10
26 10 3 0 18 5 33 11 l29 11 -7 -140 -8 -140 30 0 c17 0 45 3 63 6 l32 7 -7
67 c-8 79 3 95 35 50 l22 -31 -22 -40 c-11 -23 -19 -44 -16 -46 3 -3 26 -2 52
2 l46 7 -7 61 c-3 33 -11 69 -16 80 -9 15 -7 20 10 24 12 3 21 9 21 14 0 5 6
9 14 9 7 0 33 11 58 24 87 46 83 47 129 -46 70 -140 65 -135 73 -91 3 21 6 59
6 84 0 33 5 49 15 53 12 4 14 16 9 62 -6 51 -5 56 12 52 16 -3 20 -16 27 -103
5 -55 15 -115 23 -133 24 -55 14 -70 -11 -17 l-24 50 0 -87 c-1 -95 1 -98 53
-78 15 5 31 21 38 35 7 16 19 25 34 25 21 0 23 -2 12 -25 -12 -27 -4 -45 13
-28 15 15 7 109 -8 105 -13 -2 -19 54 -14 126 1 18 3 100 4 183 l2 149 -900
-4 c-495 -2 -924 -7 -952 -11 -36 -5 -53 -3 -53 4 0 8 -171 11 -600 11 l-600
0 0 -265z m450 224 c0 -23 -13 -25 -31 -3 -10 13 -10 17 1 24 18 11 30 3 30
-21z m545 1 c3 -5 -1 -10 -10 -10 -9 0 -13 5 -10 10 3 6 8 10 10 10 2 0 7 -4
10 -10z m1685 -3 c0 -20 -21 -37 -45 -37 -31 0 -54 -21 -61 -56 l-6 -32 48 5
c27 2 61 8 75 13 24 7 29 3 61 -44 l35 -52 -31 -14 c-95 -42 -169 -69 -177
-64 -5 3 -25 36 -44 73 -32 64 -33 70 -19 96 8 15 12 30 9 33 -3 3 -5 -1 -5
-9 0 -12 -2 -12 -9 1 -9 12 -6 52 5 88 5 18 164 17 164 -1z m-476 -6 c3 -5 -8
-11 -24 -13 -32 -5 -42 7 -12 15 28 8 31 7 36 -2z m136 -6 c0 -8 -4 -15 -10
-15 -5 0 -10 7 -10 15 0 8 5 15 10 15 6 0 10 -7 10 -15z m621 -17 c1 -13 3
-41 5 -63 4 -42 -16 -68 -28 -37 -9 22 -10 107 -1 115 13 13 23 7 24 -15z
m-2611 -9 c0 -6 -4 -7 -10 -4 -5 3 -10 11 -10 16 0 6 5 7 10 4 6 -3 10 -11 10
-16z m1630 15 c0 -3 -10 -20 -22 -36 l-21 -31 -19 23 c-10 13 -15 27 -11 31
14 13 73 24 73 13z m394 -33 c8 -15 18 -53 21 -84 7 -60 9 -56 -57 -71 l-28
-6 0 84 c0 70 3 87 18 95 26 15 30 14 46 -18z m-188 -3 c20 26 1 -36 -30 -101
l-25 -52 -1 36 c0 20 3 57 6 83 6 43 8 46 22 32 14 -14 17 -13 28 2z m-1955
-13 c0 -6 -10 -12 -23 -13 -19 -4 -20 -2 -9 12 15 17 33 18 32 1z m1179 -45
c0 -16 -4 -32 -10 -35 -6 -4 -10 10 -10 35 0 25 4 39 10 35 6 -3 10 -19 10
-35z m-100 21 c0 -5 3 -17 6 -25 4 -12 2 -15 -9 -10 -8 3 -18 0 -22 -5 -3 -6
-11 -9 -16 -5 -5 3 -16 1 -23 -5 -9 -8 -18 -3 -34 19 l-22 29 28 4 c52 8 92 7
92 -2z m-202 -41 c2 -13 -1 -42 -8 -63 -9 -31 -9 -41 0 -47 16 -10 2 -18 -47
-26 l-41 -6 -21 48 c-12 26 -22 61 -24 78 -2 28 1 31 33 37 19 4 51 6 70 5 29
-1 36 -5 38 -26z m572 -30 c-8 -5 -7 -9 3 -13 11 -4 17 -30 22 -96 l7 -90 -48
-63 -49 -63 -3 112 c-2 101 0 117 20 155 12 24 23 50 24 58 0 9 7 27 15 40
l14 25 3 -29 c2 -16 -2 -32 -8 -36z m320 29 c0 -26 -2 -30 -15 -19 -11 9 -12
16 -2 31 16 25 17 24 17 -12z m-1121 -54 c0 -5 -4 -3 -9 5 -5 8 -9 22 -9 30 0
16 17 -16 18 -35z m620 -37 l-2 -63 -7 50 c-6 46 -4 75 6 75 2 0 3 -28 3 -62z
m-911 29 c5 -23 -10 -21 -26 4 -12 18 -11 20 5 17 10 -2 19 -11 21 -21z m732
12 c0 -5 -2 -9 -4 -9 -2 0 -11 -3 -19 -6 -8 -3 -17 1 -19 8 -4 8 3 14 18 14
13 1 24 -2 24 -7z m-890 -84 c16 -19 5 -32 -30 -37 -21 -2 -26 2 -28 25 -3 23
0 27 21 27 14 0 30 -7 37 -15z m-197 -61 c-15 -23 -19 -25 -21 -10 -2 10 5 24
15 31 25 19 28 11 6 -21z m2287 10 c0 -8 -4 -12 -10 -9 -5 3 -10 13 -10 21 0
8 5 12 10 9 6 -3 10 -13 10 -21z m-2070 -14 c0 -11 -4 -20 -9 -20 -14 0 -23
18 -16 30 10 17 25 11 25 -10z m658 -102 l-4 -43 -32 67 c-18 37 -32 70 -32
72 0 3 15 9 33 14 32 8 32 8 35 -30 2 -21 2 -57 0 -80z m-689 61 c9 -1 19 -1
24 0 4 0 7 -8 7 -19 0 -16 -7 -20 -35 -20 -35 0 -35 0 -34 43 0 37 2 40 11 20
6 -13 18 -24 27 -24z m-101 -16 c-3 -44 -5 -47 -37 -55 -18 -5 -35 -8 -37 -6
-5 6 60 108 69 108 4 0 7 -21 5 -47z m589 -145 c2 -35 0 -58 -7 -58 -5 0 -10
15 -11 33 0 17 -2 52 -5 77 -4 39 -3 42 8 25 6 -11 13 -46 15 -77z m-457 46
c0 -8 -13 -29 -30 -47 l-30 -32 0 41 c0 47 5 54 37 54 14 0 23 -6 23 -16z
m-127 -33 c-3 -11 -13 -19 -23 -18 -12 1 -16 6 -12 17 12 34 44 35 35 1z m-68
-9 c-3 -3 -11 0 -18 7 -9 10 -8 11 6 5 10 -3 15 -9 12 -12z"/>
<path d="M3186 4989 c3 -6 8 -34 9 -63 1 -28 3 -58 4 -66 1 -12 10 -15 40 -12
34 3 42 0 58 -24 10 -15 17 -36 15 -45 -2 -13 2 -16 16 -12 14 3 32 -12 70
-61 29 -36 52 -70 52 -74 0 -5 -20 -15 -45 -22 -25 -7 -53 -20 -63 -29 -28
-24 -73 -99 -63 -105 5 -3 57 -2 116 3 82 6 111 12 120 25 16 21 173 37 160
17 -6 -10 0 -12 21 -8 16 3 60 9 98 12 77 8 64 -2 203 158 47 53 89 97 93 97
17 0 18 -29 2 -51 -9 -13 -41 -53 -72 -89 -96 -111 -94 -103 -20 -95 36 4 79
8 95 10 63 5 210 26 213 30 9 9 -11 25 -26 21 -10 -2 -44 -7 -77 -10 l-60 -5
45 12 c41 11 46 16 65 67 12 33 28 56 38 58 10 2 17 13 17 25 0 18 12 27 61
46 33 13 63 20 67 17 3 -4 2 -10 -4 -14 -14 -9 -29 -40 -38 -74 -5 -22 -3 -26
9 -22 8 4 15 1 15 -5 0 -6 -9 -11 -19 -11 -13 0 -21 -9 -26 -29 -3 -16 -13
-35 -21 -42 -8 -6 -14 -18 -14 -25 0 -18 76 -19 83 -1 4 9 6 9 6 0 1 -7 7 -11
14 -9 11 4 155 28 239 41 22 3 39 12 43 23 12 37 94 114 127 121 32 7 33 9 37
61 l4 55 11 -55 c9 -45 15 -56 34 -58 22 -3 22 -4 -13 -66 -40 -72 -40 -73
-19 -73 9 0 21 11 27 24 5 13 14 23 18 23 4 0 18 17 30 37 34 55 51 68 81 65
24 -3 25 -5 13 -20 -42 -51 -75 -96 -75 -102 0 -10 70 -4 80 7 4 4 17 33 28
63 15 44 25 56 43 58 84 9 89 12 89 42 0 17 5 30 10 30 15 0 12 -62 -5 -110
l-15 -43 40 46 c48 54 44 53 265 67 88 6 193 13 234 17 l74 6 -6 -56 c-3 -32
-3 -57 1 -57 15 1 423 45 502 55 266 34 265 34 497 90 172 42 190 43 205 10 7
-16 8 -29 2 -34 -18 -15 -235 -62 -400 -86 -119 -17 -169 -28 -177 -40 -17
-22 -85 -32 -92 -13 -5 13 -23 12 -138 -3 -73 -10 -133 -19 -134 -19 -2 0 -3
-4 -3 -10 0 -5 7 -10 17 -10 35 0 1 -13 -69 -26 -40 -7 -83 -16 -95 -19 -18
-4 -23 -1 -23 15 0 23 -4 22 110 49 77 19 80 20 30 16 -30 -3 -93 -8 -140 -12
-59 -4 -90 -11 -103 -23 -12 -12 -50 -22 -115 -30 -53 -6 -114 -14 -134 -17
-31 -4 -38 -2 -38 11 0 12 -10 16 -38 16 -67 0 -156 -21 -175 -41 -10 -10 -25
-19 -34 -19 -12 0 -13 -3 -4 -13 8 -10 7 -17 -1 -25 -17 -17 -7 -16 114 9 66
13 159 23 257 26 l154 6 -7 -70 -7 -70 53 8 c138 20 259 40 323 53 39 8 113
24 165 35 52 10 127 27 165 38 l70 18 -45 6 c-40 6 -37 7 25 7 126 1 400 12
413 17 6 2 12 13 12 23 0 11 8 18 20 19 15 1 20 -4 20 -22 0 -19 -7 -26 -31
-33 l-32 -8 36 -31 c55 -48 15 -63 -51 -18 -20 14 -44 25 -53 25 -9 0 -86 -18
-170 -40 -85 -23 -171 -44 -191 -47 -28 -4 -38 -10 -38 -24 0 -11 -5 -19 -11
-19 -5 0 -7 -4 -4 -10 3 -5 0 -8 -7 -5 -7 3 -25 -6 -40 -19 l-26 -25 -6 24
c-8 32 0 48 35 69 17 10 29 19 27 21 -2 2 -46 -4 -98 -15 -52 -10 -115 -21
-140 -24 -25 -3 -85 -13 -135 -21 -49 -8 -107 -15 -127 -15 -52 0 -48 -17 5
-23 65 -8 110 -21 115 -35 5 -15 -60 -16 -75 -1 -17 17 -85 -8 -81 -29 4 -21
64 -25 198 -15 103 9 99 5 89 73 -3 17 1 25 11 25 10 0 16 -12 18 -32 3 -33 4
-33 55 -33 40 0 57 -5 70 -20 12 -15 24 -18 47 -14 43 9 38 -12 -7 -27 -21 -6
-60 -22 -88 -35 -27 -12 -86 -32 -130 -44 -54 -15 -101 -36 -145 -66 -36 -24
-71 -44 -77 -44 -7 0 -13 -6 -13 -14 0 -8 -9 -18 -20 -21 -11 -3 -20 -11 -20
-16 0 -5 -4 -9 -10 -9 -5 0 -10 16 -10 35 0 28 5 38 25 47 14 6 25 15 25 20 0
5 -11 6 -25 2 -23 -6 -25 -3 -25 24 0 30 2 31 75 47 41 9 75 21 75 26 0 21
-144 24 -158 3 -14 -20 -152 -71 -152 -57 0 3 -7 0 -16 -8 -8 -7 -13 -21 -11
-31 7 -23 -18 -24 -35 0 -21 28 -120 88 -168 101 -25 7 -59 21 -76 32 -17 10
-41 19 -52 19 -12 0 -47 7 -78 15 -32 8 -109 22 -171 32 -108 16 -113 18 -113
41 0 21 -3 23 -22 17 -60 -18 -111 -24 -208 -25 -98 0 -108 -2 -155 -30 -27
-16 -62 -30 -77 -30 -16 0 -28 -4 -28 -9 0 -5 -13 -23 -29 -40 -22 -23 -38
-31 -65 -31 -33 0 -36 -2 -42 -37 -9 -49 -20 -70 -58 -109 -54 -55 -107 -143
-160 -267 -9 -21 -24 -40 -33 -43 -10 -3 -27 -10 -38 -15 -17 -8 -16 -9 7 -6
20 3 25 0 20 -12 -11 -30 -34 -61 -47 -61 -26 0 -82 -36 -134 -87 -29 -30 -51
-56 -48 -59 8 -9 107 8 107 19 0 5 6 5 14 -2 7 -6 21 -9 30 -5 11 4 16 1 16
-13 0 -28 -20 -43 -58 -43 -18 0 -63 -5 -100 -11 -63 -10 -68 -14 -85 -47 -12
-24 -15 -38 -8 -40 13 -4 15 -101 2 -121 -19 -29 -33 0 -27 53 l7 51 -18 -30
c-10 -16 -25 -43 -33 -60 -8 -16 -21 -38 -30 -49 -14 -18 -13 -18 15 -14 17 3
66 11 110 18 73 12 94 21 95 43 0 4 -12 7 -26 7 -24 0 -25 3 -21 36 3 19 7 37
9 39 2 2 21 0 41 -5 36 -8 39 -7 61 28 13 21 25 44 29 52 13 35 6 -16 -13 -90
-24 -95 -58 -322 -61 -405 -1 -33 -4 -65 -6 -72 -3 -6 -38 -14 -81 -19 -42 -3
-80 -12 -84 -18 -14 -21 -8 -28 17 -22 22 6 25 3 25 -24 0 -32 -8 -31 90 -15
19 3 30 0 31 -8 0 -6 2 -23 4 -37 2 -14 4 -70 5 -125 2 -59 12 -146 26 -210
13 -60 24 -124 24 -140 0 -17 9 -55 21 -85 12 -30 25 -73 29 -95 5 -22 11 -49
15 -61 6 -18 2 -20 -42 -23 -26 -1 -91 -6 -143 -12 -52 -5 -126 -12 -163 -16
-40 -3 -63 -9 -56 -14 7 -4 16 -6 19 -4 4 2 87 11 186 20 98 8 188 17 199 18
15 1 24 -10 39 -48 11 -27 33 -81 48 -120 16 -38 33 -79 37 -90 25 -60 36 -81
73 -137 25 -38 22 -55 -9 -62 -16 -4 -36 -9 -45 -12 -14 -4 -18 0 -18 17 0 33
-14 14 -43 -56 -20 -49 -26 -85 -31 -193 l-7 -133 38 3 38 3 3 143 c2 130 4
142 21 142 10 0 35 7 56 15 20 9 44 13 53 11 10 -3 49 -37 87 -74 l71 -69 -23
-49 c-13 -27 -23 -58 -23 -70 0 -19 3 -20 57 -13 61 8 73 18 73 66 l0 31 83
-30 c45 -17 135 -42 201 -56 79 -17 112 -28 99 -33 -16 -6 -19 -19 -22 -88 -2
-79 -2 -81 21 -81 41 0 46 11 43 93 -3 77 -3 77 22 77 25 0 26 -1 20 -57 -4
-32 -10 -68 -13 -81 l-7 -23 109 7 c60 3 112 9 116 13 3 3 8 27 10 53 3 42 1
47 -14 42 -12 -3 -18 0 -18 10 0 17 50 30 93 24 l27 -3 -42 -65 c-40 -64 -109
-189 -154 -281 -22 -44 -25 -47 -73 -53 -28 -4 -51 -10 -51 -15 0 -4 11 -25
25 -45 l25 -37 -37 -54 c-19 -30 -39 -55 -43 -55 -3 0 -13 15 -21 32 -16 37
-42 44 -47 13 -5 -25 -39 -58 -52 -50 -6 3 -10 20 -10 37 l0 31 -72 -8 c-89
-8 -104 -21 -105 -91 0 -28 -7 -64 -14 -79 -14 -27 -127 -105 -154 -105 -14 0
-37 24 -30 31 2 3 9 45 16 95 10 81 14 93 38 108 26 17 26 17 -29 12 -30 -3
-67 -6 -81 -6 -29 0 -109 -69 -109 -94 0 -27 27 -39 61 -27 18 6 33 11 33 11
1 0 0 -18 -2 -41 -3 -33 -7 -39 -21 -34 -9 4 -65 24 -126 45 -302 105 -314
111 -308 143 6 32 -5 38 -54 27 -36 -9 -50 -5 -134 32 -134 58 -200 85 -313
124 -117 42 -347 155 -385 190 -18 17 -37 24 -65 24 -21 0 -71 10 -110 22 -39
11 -102 26 -141 32 l-70 11 -5 112 c-3 62 -9 116 -14 120 -5 4 -20 -7 -35 -26
-14 -18 -37 -46 -51 -62 l-25 -28 -70 64 -69 64 22 24 c12 13 22 26 22 29 0 8
-53 -3 -67 -14 -15 -12 -43 28 -43 63 0 14 -7 48 -15 75 -11 36 -11 50 -3 55
7 4 15 6 19 3 6 -3 39 38 39 48 0 2 -24 1 -53 0 -40 -3 -58 1 -70 13 -9 9 -28
22 -43 30 -17 9 -34 33 -49 68 l-22 55 29 -2 c23 -1 36 7 55 32 l26 32 -26 0
c-16 0 -31 -8 -37 -20 -13 -24 -30 -26 -30 -5 0 8 -4 15 -10 15 -5 0 -10 -8
-10 -17 0 -35 -20 5 -63 122 -46 126 -69 270 -44 273 7 1 48 5 92 8 71 6 94
15 95 35 0 3 -37 0 -82 -7 -119 -19 -125 -19 -131 13 -3 16 -9 40 -13 55 -5
24 -3 28 15 28 12 0 21 -6 21 -15 0 -8 -4 -15 -10 -15 -5 0 -10 -7 -10 -15 0
-11 12 -15 48 -15 72 0 89 8 94 41 4 26 2 29 -24 29 -15 0 -28 1 -28 3 0 1 9
27 19 57 11 30 27 90 38 132 18 78 33 101 33 51 l0 -26 25 23 c19 18 25 34 25
67 0 24 5 43 10 43 6 0 10 -11 10 -25 0 -28 12 -32 29 -11 19 23 -17 91 -49
91 -29 0 -30 -2 3 100 14 44 28 102 32 129 4 27 10 45 13 39 10 -16 62 -4 62
14 0 12 -8 14 -35 9 -31 -6 -35 -4 -35 13 0 21 32 46 44 34 3 -3 6 1 6 11 0 9
11 33 24 54 13 20 30 54 37 75 7 20 16 37 20 37 9 0 26 -52 34 -108 7 -44 24
-60 46 -46 7 4 33 9 58 11 25 2 49 7 52 11 9 10 -8 52 -21 52 -6 0 -8 10 -5
23 4 12 1 35 -5 51 -9 23 -13 26 -25 16 -8 -7 -15 -19 -15 -26 0 -8 -4 -14
-10 -14 -5 0 -10 13 -10 29 0 24 5 30 24 33 20 3 22 6 15 26 -8 21 -13 23 -52
17 -24 -4 -50 -16 -61 -28 -19 -22 -19 -22 -12 28 7 50 32 114 51 127 12 9 3
11 -35 9 -20 -2 -29 6 -43 33 -10 23 -32 43 -59 58 l-43 22 60 11 c63 11 76
26 53 58 -12 16 -17 17 -56 3 -44 -16 -45 -16 -63 -16 -7 0 -9 -9 -5 -23 5
-23 5 -23 -77 -21 l-83 3 -22 -33 c-12 -18 -35 -45 -51 -60 l-29 -28 -7 65
c-4 35 -10 70 -14 76 -6 9 -31 10 -95 5 -82 -6 -86 -8 -79 -28 3 -12 7 -29 7
-38 0 -10 4 -18 8 -18 15 0 8 -29 -9 -40 -16 -9 -15 -10 5 -5 19 5 25 0 41
-37 39 -91 43 -84 -66 -108 -54 -12 -99 -23 -99 -24 -1 0 -5 -11 -8 -24 -7
-21 -5 -22 31 -17 21 3 70 9 109 14 80 9 94 15 94 37 0 8 5 12 10 9 13 -8 13
-125 1 -125 -8 0 -41 -54 -41 -68 0 -2 17 -1 37 3 l38 7 -19 -21 c-11 -12 -29
-21 -41 -21 -27 0 -44 -18 -47 -51 -2 -18 2 -24 15 -23 14 2 16 -3 11 -20 -13
-41 -26 -50 -40 -24 -11 18 -13 19 -14 6 0 -10 -9 -27 -20 -38 -29 -29 -26
-52 5 -46 33 6 32 -5 -10 -91 -19 -40 -40 -93 -47 -118 -13 -48 -18 -51 -110
-70 -37 -7 -70 -64 -66 -112 3 -37 4 -38 46 -41 25 -2 50 2 59 10 14 11 15 9
8 -20 -9 -43 13 -76 60 -92 33 -11 36 -14 30 -41 -4 -16 -10 -60 -13 -97 -7
-64 -8 -67 -36 -72 -46 -8 -42 -26 4 -22 22 2 40 0 41 -4 1 -5 2 -43 4 -84 l2
-75 -40 -2 c-30 -1 -47 -9 -71 -33 l-31 -31 80 2 80 2 1 -29 c0 -31 13 -118
21 -146 3 -14 -2 -18 -24 -18 -15 0 -35 -5 -43 -11 -11 -8 -4 -9 27 -7 l42 3
26 -60 c15 -33 35 -77 46 -97 10 -20 19 -42 19 -49 0 -6 27 -58 59 -115 38
-66 58 -110 54 -123 -4 -16 -8 -18 -23 -9 -17 11 -17 13 -2 24 23 17 7 32 -38
36 -30 3 -38 9 -57 49 -12 25 -41 62 -64 83 -34 29 -39 36 -22 36 19 0 50 45
35 53 -4 3 -37 0 -74 -6 l-67 -10 -38 34 c-77 68 -223 263 -242 322 -14 42
-61 135 -96 187 -17 25 -24 53 -27 101 l-4 66 80 7 c44 3 84 10 89 15 7 7 3
31 -9 68 -15 46 -19 83 -17 178 3 147 5 159 29 163 10 2 22 7 26 11 4 3 19 60
33 126 28 128 32 209 16 320 -6 39 -11 99 -11 135 0 75 -24 219 -41 252 -7 13
-23 33 -36 46 -19 17 -23 29 -19 52 3 17 9 43 12 59 3 17 13 31 25 34 10 3 19
12 19 21 0 10 9 16 24 16 35 0 43 17 48 108 l5 82 -26 0 c-43 0 -68 -11 -80
-33 -6 -12 -9 -14 -7 -5 4 12 -3 22 -21 31 -29 16 -113 5 -150 -19 -12 -8 -39
-14 -60 -14 -21 0 -62 -3 -90 -6 -47 -6 -53 -10 -53 -29 0 -13 -13 -49 -29
-80 -26 -54 -28 -56 -33 -31 -3 16 0 33 9 42 13 12 12 14 -1 14 -12 0 -16 10
-16 36 0 35 -1 35 -37 32 -35 -3 -38 -6 -42 -38 l-4 -35 -6 30 c-6 28 -10 30
-55 33 l-48 3 5 -33 c8 -58 45 -172 56 -176 17 -6 13 -19 -15 -63 -21 -33 -24
-48 -19 -80 6 -34 11 -39 41 -45 42 -8 42 -8 50 -78 6 -50 5 -56 -12 -56 -18
-1 -18 -1 1 -16 17 -13 20 -27 21 -92 0 -42 6 -129 12 -192 7 -63 12 -166 12
-228 0 -126 8 -152 46 -152 l26 0 -4 -127 c-3 -109 -7 -134 -26 -168 -39 -71
-27 -91 61 -101 l57 -7 0 -89 c0 -126 17 -220 51 -285 16 -30 29 -62 29 -72 0
-9 9 -31 20 -49 11 -18 20 -41 20 -52 0 -11 4 -20 9 -20 5 0 15 -17 21 -37 7
-21 19 -49 27 -62 13 -20 13 -25 2 -32 -11 -7 -11 -9 2 -9 8 0 26 -19 38 -42
13 -24 39 -59 57 -78 19 -19 59 -65 89 -102 l55 -67 -3 -90 -2 -91 -44 0 c-57
0 -111 38 -111 78 0 35 -18 100 -30 107 -5 3 -25 3 -45 -1 -32 -6 -35 -9 -35
-40 0 -19 -3 -34 -6 -34 -41 0 -364 288 -335 298 7 2 22 13 32 23 20 20 18 71
-6 124 -8 17 -20 59 -27 94 -9 46 -19 68 -36 79 -19 12 -21 20 -16 48 4 24 0
45 -13 71 -11 21 -23 59 -26 85 -8 57 -43 162 -69 206 -27 44 -18 81 22 89 39
7 54 27 47 60 -3 15 2 41 10 57 13 24 13 36 3 69 -10 35 -10 41 4 49 20 11 21
56 1 78 -13 14 -14 22 -4 43 15 34 6 56 -31 68 -16 6 -30 16 -30 22 0 6 -9 21
-21 33 -17 18 -19 26 -10 43 7 11 17 20 24 18 15 -3 14 64 -4 186 -13 88 -13
89 -40 83 -14 -3 -49 -8 -78 -12 -41 -5 -51 -10 -47 -23 34 -117 37 -135 31
-183 -5 -36 -4 -49 4 -44 6 4 11 23 11 42 0 22 5 34 14 34 7 0 32 21 56 46
l42 45 -3 -50 c-2 -28 0 -54 4 -57 17 -17 4 -40 -32 -57 -21 -10 -41 -26 -44
-37 -7 -26 -34 -26 -42 1 -7 20 -12 20 -112 16 -104 -5 -122 -11 -123 -44 0
-19 -18 -25 -39 -13 -11 6 -18 16 -15 24 3 9 -6 15 -27 20 -46 9 -169 7 -169
-2 0 -5 9 -17 20 -27 16 -14 29 -16 70 -11 54 7 56 6 38 -27 -6 -12 -12 -38
-12 -57 -1 -30 -4 -35 -22 -32 -37 5 -50 -23 -36 -75 11 -39 10 -48 -3 -63
-24 -27 -19 -83 10 -112 16 -16 23 -32 19 -42 -16 -41 23 -86 76 -86 10 0 27
-15 39 -33 11 -18 33 -45 49 -59 24 -21 29 -32 24 -55 -3 -15 -7 -22 -10 -15
-5 16 -22 6 -22 -14 0 -8 7 -14 15 -14 9 0 15 -9 15 -25 0 -14 -3 -24 -7 -24
-32 5 -83 -3 -83 -13 0 -6 -10 -22 -22 -35 -12 -13 -20 -25 -17 -27 2 -2 32 1
66 6 59 10 62 10 97 -18 29 -24 36 -36 36 -64 l0 -36 -217 -17 c-120 -10 -237
-17 -260 -17 -36 0 -43 -3 -43 -20 0 -17 7 -20 53 -20 45 0 225 11 394 25 l52
4 6 -47 c3 -26 8 -61 11 -78 3 -20 0 -31 -8 -31 -7 0 -80 -8 -163 -18 -82 -10
-195 -23 -250 -29 -94 -10 -100 -12 -103 -35 l-4 -24 79 7 c43 4 98 9 123 12
25 3 106 11 180 18 74 7 142 16 150 20 13 5 22 -14 48 -94 18 -55 32 -102 32
-104 0 -3 -15 -7 -33 -10 -17 -2 14 -3 71 -1 93 3 103 1 113 -17 11 -21 7 -30
-38 -77 -13 -13 -21 -26 -19 -29 3 -2 25 0 50 7 40 10 47 9 71 -12 31 -26 51
-47 101 -104 19 -23 43 -45 53 -48 9 -3 25 -19 35 -36 31 -52 155 -167 210
-195 114 -58 149 -84 111 -84 -8 0 -15 -7 -15 -16 0 -13 8 -15 46 -11 37 5 61
0 134 -30 49 -20 87 -39 85 -43 -2 -3 0 -12 5 -20 7 -11 11 -11 24 -1 25 21
96 -15 96 -49 0 -13 23 -13 37 1 14 14 34 3 27 -15 -7 -19 14 -30 31 -16 9 8
23 8 47 1 18 -5 25 -10 16 -10 -11 -1 -18 -9 -18 -22 0 -18 4 -20 27 -14 15 3
33 15 41 26 13 19 15 19 27 2 11 -14 16 -16 26 -5 7 6 33 12 56 12 41 0 43 -1
33 -21 -7 -11 -9 -27 -6 -35 9 -24 43 1 51 37 7 29 8 30 24 12 10 -10 15 -20
11 -23 -9 -6 -13 -25 -11 -59 1 -26 -15 -25 163 -5 l57 6 10 50 c6 27 9 53 6
58 -3 4 15 14 40 21 25 7 45 17 45 21 0 16 29 7 94 -29 57 -32 66 -41 66 -65
0 -23 4 -28 25 -28 16 0 25 6 25 16 0 9 3 14 8 12 76 -38 205 -98 220 -102 18
-6 20 -16 21 -92 1 -47 3 -90 7 -95 13 -21 -9 -26 -63 -13 -31 7 -59 11 -63 9
-3 -2 -7 -62 -8 -134 l-2 -131 230 0 c192 0 230 2 230 14 0 8 11 37 25 64 22
44 31 72 22 72 -8 0 -235 59 -249 65 -10 4 -19 14 -22 23 -8 26 -16 152 -10
152 2 0 24 -10 47 -22 23 -12 92 -43 152 -69 61 -25 110 -51 110 -57 0 -6 3
-14 8 -18 4 -4 7 -2 7 4 0 7 6 12 13 12 24 0 237 -95 237 -107 0 -6 -9 -32
-20 -58 -28 -65 -26 -71 20 -73 38 -3 40 -1 61 43 12 25 25 48 30 50 4 3 33
-7 64 -22 l56 -27 -23 -18 c-33 -24 -17 -32 41 -19 34 7 59 7 76 1 16 -6 274
-10 675 -10 l649 0 28 40 c15 22 30 40 33 40 3 0 4 -18 2 -40 l-4 -40 1101 0
1101 0 0 1177 c0 647 -2 1174 -5 1171 -3 -3 -6 -91 -6 -196 l-1 -191 -42 -6
c-40 -6 -44 -10 -60 -56 -10 -27 -22 -52 -27 -55 -5 -3 -9 27 -9 68 0 234 -64
485 -171 670 -28 48 -48 92 -44 97 6 11 25 284 19 290 -6 6 -238 -21 -267 -31
-15 -6 -35 -24 -43 -39 -8 -16 -16 -29 -17 -29 -94 18 -112 27 -124 61 -7 19
-12 57 -12 86 -1 56 -2 55 71 68 27 4 42 14 55 36 l18 30 7 -38 c4 -21 7 -63
7 -92 1 -69 14 -56 30 29 14 74 17 127 8 136 -3 4 -23 0 -44 -8 -21 -8 -63
-16 -93 -17 -109 -5 -190 -31 -184 -60 1 -9 6 -34 10 -56 l8 -40 5 35 c5 32 9
35 39 35 31 0 33 2 29 28 -2 15 0 30 4 32 11 8 20 -126 12 -175 l-8 -45 -90
-5 c-50 -3 -92 -4 -94 -3 -2 2 -10 44 -17 94 -7 51 -18 95 -24 99 -6 4 -12 11
-13 15 -1 5 -28 7 -59 6 -51 -2 -58 0 -58 17 0 15 9 21 46 26 26 3 60 6 76 6
23 0 32 7 45 35 9 19 15 37 12 39 -2 2 -20 6 -39 8 -30 3 -35 0 -38 -19 -2
-13 -7 -23 -12 -23 -5 0 -7 7 -4 15 4 8 1 15 -5 15 -6 0 -11 14 -11 30 0 17 5
30 10 30 6 0 5 13 -3 33 -8 19 -11 40 -6 52 4 11 8 14 8 8 1 -9 21 -13 66 -13
58 0 65 -2 65 -20 0 -18 -7 -20 -54 -20 -56 0 -70 -7 -57 -28 6 -10 19 -10 59
-1 29 7 55 10 58 6 4 -3 9 -21 13 -39 4 -19 14 -34 24 -36 15 -3 17 9 17 121
0 95 4 132 16 157 19 38 25 102 13 139 -9 25 -9 25 -5 -4 2 -16 0 -41 -4 -55
-6 -19 -8 -10 -9 33 -1 54 0 57 23 57 20 0 23 -4 19 -27 l-5 -28 16 29 c9 15
16 39 16 52 0 13 5 24 10 24 6 0 10 9 10 20 0 11 9 35 20 55 11 20 20 45 20
57 0 18 -4 20 -37 15 -600 -88 -643 -93 -654 -76 -5 8 -9 16 -9 20 0 8 91 21
620 91 99 13 120 21 120 48 0 11 4 20 9 20 5 0 12 14 16 30 4 17 10 30 15 30
4 0 13 -13 20 -30 9 -22 19 -30 37 -30 21 0 24 4 19 23 -13 47 -19 187 -8 187
15 0 44 -144 40 -196 -2 -27 1 -43 7 -40 5 2 54 11 108 21 l97 17 1 67 c1 36
1 110 -1 164 -1 59 2 97 8 97 13 0 20 -43 28 -192 3 -71 9 -128 13 -129 59 -9
61 -8 92 57 16 35 29 66 29 69 0 3 -13 3 -30 0 -27 -5 -30 -3 -30 20 0 26 9
29 60 25 37 -3 40 -10 42 -88 1 -65 9 -89 31 -91 10 -1 9 -6 -8 -49 -31 -73
-47 -132 -43 -157 3 -14 1 -22 -5 -18 -14 8 -27 -17 -27 -56 0 -61 -15 -22
-25 67 l-10 87 -29 -2 c-16 -1 -30 -4 -33 -7 -4 -4 14 -232 23 -273 3 -17 11
-23 30 -23 18 0 28 -7 31 -20 4 -16 11 -19 27 -14 38 12 41 9 44 -39 2 -26 -1
-47 -5 -46 -4 1 -32 1 -61 0 -52 -1 -53 -2 -50 -28 2 -22 9 -29 31 -31 15 -2
27 -9 27 -18 0 -10 14 -14 53 -14 28 0 62 3 74 6 21 6 53 65 69 129 6 26 8 27
15 10 4 -11 8 321 8 738 l1 757 -1129 0 c-1067 0 -1130 -1 -1134 -17 -4 -17
-5 -17 -6 0 -1 15 -12 17 -80 17 -44 0 -82 -4 -86 -9 -3 -6 -18 -6 -38 0 -18
5 -306 9 -664 9 l-633 0 -1 -27 -1 -28 -7 25 c-7 25 -9 25 -118 28 l-112 3 1
-31 c1 -17 -2 -33 -5 -37 -4 -3 -7 10 -7 30 l0 37 -63 0 c-36 0 -68 -5 -75
-12 -9 -9 -12 -9 -12 0 0 8 -23 12 -76 12 -52 0 -73 -3 -68 -11z m4129 -38 c0
-33 -2 -35 -62 -52 -35 -9 -63 -16 -64 -13 -4 19 -1 75 4 80 10 10 70 23 97
21 21 -2 25 -7 25 -36z m-3409 -35 c-7 -73 6 -96 43 -76 29 15 41 42 41 92 l0
43 20 -25 c34 -45 70 -124 61 -133 -5 -5 -57 -29 -116 -52 l-106 -43 -16 24
c-8 13 -19 42 -24 65 -9 37 -7 46 17 80 15 22 30 39 34 39 4 0 12 11 18 25 22
48 35 29 28 -39z m-267 4 l-1 -25 -8 25 c-4 14 -8 32 -9 40 -1 13 0 13 9 0 5
-8 9 -26 9 -40z m584 -18 c6 -56 -3 -82 -28 -82 -14 0 -25 44 -25 105 0 39 2
42 24 38 20 -4 24 -12 29 -61z m242 36 c13 -13 -22 -37 -97 -65 l-58 -22 -1
34 c-1 19 -2 41 -3 48 -1 6 -1 15 1 19 5 10 146 -3 158 -14z m1395 18 c0 -3
-4 -8 -10 -11 -5 -3 -10 -1 -10 4 0 6 5 11 10 11 6 0 10 -2 10 -4z m-2460
-108 c0 -10 -4 -18 -9 -18 -16 0 -23 19 -16 41 6 17 9 19 16 8 5 -8 9 -22 9
-31z m2610 2 c0 -5 -9 -10 -19 -10 -11 0 -23 5 -26 10 -4 6 5 10 19 10 14 0
26 -4 26 -10z m205 -1 c13 -19 -5 -23 -38 -6 l-32 16 32 0 c17 1 35 -4 38 -10z
m-2578 -46 c-3 -10 -5 -2 -5 17 0 19 2 27 5 18 2 -10 2 -26 0 -35z m-134 -75
c2 -38 1 -68 -4 -68 -5 0 -9 32 -9 72 0 88 6 86 13 -4z m3810 32 c15 -14 -2
-45 -30 -56 -45 -19 -83 -25 -84 -14 -4 28 -5 76 -2 81 3 8 106 -1 116 -11z
m-3573 -64 c0 -36 -4 -68 -10 -71 -6 -4 -10 20 -10 64 0 41 4 71 10 71 6 0 10
-28 10 -64z m3280 54 c0 -5 -8 -10 -17 -10 -15 0 -16 2 -3 10 19 12 20 12 20
0z m70 -154 c0 -6 -5 -3 -11 7 -6 9 -15 14 -21 11 -7 -4 -8 -2 -4 5 9 14 36
-3 36 -23z m-970 -46 c0 -5 -17 -10 -37 -10 -28 0 -34 3 -23 10 20 13 60 13
60 0z m55 -10 c3 -5 -1 -10 -9 -10 -9 0 -16 5 -16 10 0 6 4 10 9 10 6 0 13 -4
16 -10z m1070 -16 c27 -18 25 -34 -6 -34 -10 0 -19 -6 -20 -12 0 -7 -5 0 -9
16 -8 27 -6 46 6 46 3 0 16 -7 29 -16z m-226 -214 c0 -47 0 -114 1 -150 1 -64
1 -65 -16 -41 -14 20 -15 27 -5 44 8 12 9 22 3 26 -11 7 -23 164 -15 204 5 24
8 26 19 15 10 -9 14 -39 13 -98z m-1989 -31 c206 -29 368 -71 445 -115 90 -52
97 -57 133 -86 18 -16 49 -37 70 -47 31 -16 92 -79 92 -94 0 -3 36 -42 80 -88
49 -51 82 -95 86 -114 4 -16 21 -43 39 -58 37 -31 75 -106 101 -194 9 -32 19
-62 23 -68 25 -40 48 -145 82 -365 12 -80 28 -154 35 -165 21 -30 17 -156 -12
-380 -14 -110 -29 -235 -34 -279 -5 -43 -14 -84 -20 -91 -6 -7 -10 -29 -8 -49
1 -20 -3 -41 -10 -48 -7 -7 -12 -28 -12 -48 0 -21 -10 -50 -25 -72 -14 -20
-30 -61 -36 -90 -9 -45 -42 -117 -71 -153 -24 -31 -59 -67 -111 -114 -45 -40
-63 -51 -80 -46 -15 4 -18 3 -9 -3 33 -23 -281 -189 -403 -213 -104 -21 -308
-15 -430 11 -55 12 -122 26 -150 32 -92 17 -281 100 -270 118 3 6 -1 7 -10 4
-17 -7 -48 14 -39 27 3 5 -1 6 -8 4 -9 -4 -23 12 -38 41 -14 26 -37 70 -52 98
-15 28 -25 56 -23 63 2 6 1 13 -3 15 -4 2 -25 46 -46 98 -22 52 -54 127 -71
165 -18 39 -45 99 -60 135 -15 36 -36 83 -46 105 -18 40 -80 276 -78 298 0 7
9 -15 18 -48 19 -62 64 -160 85 -180 6 -6 31 -35 55 -64 51 -60 109 -97 166
-106 22 -4 90 -2 151 3 92 8 121 15 173 41 83 41 100 55 161 135 64 86 85 132
99 223 39 252 -22 495 -159 631 -79 80 -112 90 -309 98 -151 6 -158 5 -220
-20 -35 -14 -67 -23 -71 -21 -5 3 -10 -1 -13 -7 -3 -10 -7 -10 -17 -1 -10 9
-5 15 24 27 44 18 41 40 -4 25 -43 -15 -57 -36 -36 -52 16 -12 15 -15 -16 -37
-19 -13 -45 -38 -58 -57 -26 -38 -45 -43 -37 -10 3 12 10 54 17 92 20 120 61
287 80 330 10 22 26 68 34 103 9 35 41 115 71 178 30 63 55 119 55 124 0 9 30
24 43 21 5 -1 6 3 3 8 -4 5 1 16 9 24 8 9 15 19 15 23 0 3 20 34 44 68 44 62
113 127 210 199 l51 37 130 -4 c72 -3 168 -10 215 -17z m1387 -11 c-3 -8 -6
-5 -6 6 -1 11 2 17 5 13 3 -3 4 -12 1 -19z m-597 -98 c0 -20 -5 -30 -15 -30
-8 0 -15 -8 -16 -17 0 -10 -5 -5 -9 11 -10 33 3 66 25 66 10 0 15 -10 15 -30z
m890 -50 c0 -13 7 -20 19 -20 36 0 51 -12 51 -39 0 -25 -3 -26 -55 -28 -55 -1
-55 -1 -55 29 0 29 -2 30 -34 25 -54 -9 -59 36 -6 46 60 11 80 8 80 -13z
m-197 -29 c-3 -12 -16 -21 -36 -24 -44 -6 -45 -2 -6 22 42 26 48 26 42 2z
m-165 -18 c3 -19 -1 -23 -25 -23 -16 0 -97 -11 -181 -25 -84 -14 -155 -25
-157 -25 -8 0 -6 50 3 50 4 0 77 11 162 25 182 28 194 28 198 -2z m1139 -20
c-3 -10 -5 -4 -5 12 0 17 2 24 5 18 2 -7 2 -21 0 -30z m-1667 11 c0 -8 -5 -12
-10 -9 -6 4 -8 11 -5 16 9 14 15 11 15 -7z m800 -15 c0 -5 -4 -9 -10 -9 -5 0
-10 7 -10 16 0 8 5 12 10 9 6 -3 10 -10 10 -16z m-673 -20 c4 -20 -8 -35 -34
-43 -20 -7 -23 -4 -23 22 0 17 6 32 13 35 21 7 42 1 44 -14z m513 -39 c0 -5
-7 -10 -15 -10 -8 0 -15 5 -15 10 0 6 7 10 15 10 8 0 15 -4 15 -10z m1027 -12
c-3 -8 -6 -5 -6 6 -1 11 2 17 5 13 3 -3 4 -12 1 -19z m-787 -12 c0 -3 -4 -8
-10 -11 -5 -3 -10 -1 -10 4 0 6 5 11 10 11 6 0 10 -2 10 -4z m785 -234 c-13
-13 -18 13 -16 80 3 112 16 125 19 19 1 -51 0 -96 -3 -99z m-6175 144 c0 -3
-4 -8 -10 -11 -5 -3 -10 -1 -10 4 0 6 5 11 10 11 6 0 10 -2 10 -4z m29 -48
l28 4 9 -80 c8 -70 7 -83 -9 -113 -24 -43 -30 -46 -67 -41 -35 5 -36 7 -10 50
14 22 27 32 45 32 32 0 31 8 -5 80 -16 33 -30 65 -29 72 0 8 2 9 5 2 2 -6 17
-9 33 -6z m-79 -124 c7 -18 6 -21 -10 -17 -18 5 -19 1 -13 -46 l6 -51 -31 0
c-17 0 -43 -5 -58 -10 -33 -13 -34 -11 -41 38 -5 35 -3 40 18 45 13 4 34 7 46
7 21 0 22 3 17 83 l-4 82 31 -55 c17 -30 35 -65 39 -76z m5378 61 c-3 -14 -1
-25 3 -25 5 0 9 8 9 17 0 9 2 14 5 11 4 -3 3 -17 -1 -32 -9 -37 -54 -38 -54
-1 0 15 6 25 15 25 9 0 12 6 9 15 -4 8 -1 15 6 15 8 0 11 -9 8 -25z m-105
-196 l32 0 -30 -14 c-42 -19 -238 -79 -249 -76 -5 1 -23 -3 -40 -9 -26 -9 -33
-8 -43 7 -14 19 -17 37 -5 30 4 -2 21 2 37 9 l30 13 -41 1 c-23 0 -47 6 -53
14 -9 11 0 14 50 20 34 3 95 6 136 6 68 0 74 2 71 20 -2 10 2 19 7 19 6 -1 9
-5 8 -9 -4 -13 25 -32 37 -25 5 3 10 27 9 53 -1 38 -2 42 -9 22 -6 -17 -8 -4
-8 45 1 64 2 66 8 25 l7 -45 4 50 c2 29 5 8 6 -52 l4 -103 32 -1z m-254 114
c-1 -53 -6 -49 -11 10 -2 20 0 37 4 37 4 0 8 -21 7 -47z m-4820 -30 c-13 -21
-28 -46 -33 -55 -11 -19 -41 -24 -50 -10 -3 4 9 29 26 55 23 35 37 47 55 47
l25 0 -23 -37z m6031 12 c0 -8 -4 -15 -10 -15 -5 0 -10 7 -10 15 0 8 5 15 10
15 6 0 10 -7 10 -15z m-6402 -54 l15 -44 -36 -33 c-43 -41 -72 -44 -81 -9 -3
13 -11 37 -18 52 -25 61 -22 71 19 76 78 8 85 5 101 -42z m1212 -69 c44 -22
60 -36 78 -72 28 -56 29 -90 2 -90 -21 0 -45 -34 -34 -51 3 -6 17 -8 31 -4 20
5 24 3 19 -12 -3 -10 -8 -31 -12 -48 -4 -16 -18 -53 -30 -81 -19 -43 -28 -52
-52 -56 -17 -2 -39 -1 -50 3 -10 4 -35 10 -53 12 -46 7 -207 88 -211 107 -6
26 13 102 42 166 29 65 84 120 141 140 49 18 68 16 129 -14z m-940 -51 c29
-21 70 -78 70 -97 0 -8 -9 -14 -20 -14 -16 0 -20 -7 -20 -30 0 -23 4 -30 20
-30 11 0 20 5 20 10 0 6 5 10 11 10 12 0 9 -203 -2 -215 -4 -3 -16 -8 -28 -10
-13 -2 -31 -7 -42 -10 -11 -4 -31 0 -44 9 -27 18 -97 21 -125 6 -26 -14 -116
6 -125 28 -16 41 -16 131 -1 190 19 77 49 123 101 157 36 23 46 25 100 20 33
-4 71 -14 85 -24z m591 -124 c-13 -13 -14 10 -3 68 l7 40 3 -49 c2 -27 -2 -54
-7 -59z m5379 63 c0 -5 -4 -10 -9 -10 -6 0 -13 5 -16 10 -3 6 1 10 9 10 9 0
16 -4 16 -10z m-1030 -69 c0 -10 -9 -21 -19 -24 -24 -6 -31 0 -31 25 0 13 7
18 25 18 18 0 25 -5 25 -19z m-3920 -11 c0 -5 -5 -10 -11 -10 -5 0 -7 5 -4 10
3 6 8 10 11 10 2 0 4 -4 4 -10z m3950 -89 c15 -29 13 -33 -17 -29 -20 2 -29 9
-31 26 -4 28 33 31 48 3z m-4319 -55 c5 3 9 0 9 -5 0 -6 3 -10 8 -9 4 0 32
-11 63 -25 70 -34 135 -53 177 -52 41 0 41 -8 -3 -35 -46 -29 -102 -21 -176
23 -50 30 -100 86 -98 111 0 6 3 6 6 -2 2 -6 9 -10 14 -6z m2665 -55 c106 -46
137 -106 179 -349 21 -119 24 -150 14 -185 -26 -100 -114 -197 -227 -250 -61
-29 -76 -32 -162 -32 -82 0 -103 4 -150 26 -70 33 -155 118 -187 188 -25 53
-62 232 -63 303 0 85 18 132 77 192 98 100 195 136 363 132 84 -2 115 -7 156
-25z m-3523 -56 c15 0 35 -7 44 -17 21 -23 121 -26 129 -4 3 8 13 15 22 14 9
0 30 3 46 7 l29 6 -25 -33 c-30 -39 -73 -52 -145 -45 -55 6 -153 52 -161 75
-3 11 0 12 14 5 11 -5 32 -9 47 -8z m843 -63 c1 -55 28 -147 53 -181 l18 -23
86 76 c47 43 88 82 91 89 17 34 -7 -119 -25 -164 -11 -30 -38 -123 -60 -206
-64 -251 -83 -284 -156 -281 -24 1 -43 5 -43 9 0 4 -12 6 -27 4 -35 -4 -101
32 -119 65 -10 19 -13 21 -14 8 0 -20 -8 -22 -29 -9 -11 7 -10 23 9 97 12 49
31 117 42 152 11 35 18 65 15 68 -6 7 -53 -141 -72 -228 -17 -83 -32 -107 -21
-35 14 88 69 266 113 365 25 56 48 100 51 97 3 -2 -3 -23 -13 -45 -10 -22 -16
-43 -13 -46 4 -3 16 20 27 51 21 56 79 185 84 185 1 0 2 -21 3 -48z m4439 -53
l6 -76 -43 -6 c-24 -3 -46 -3 -49 1 -10 11 -21 133 -12 131 36 -6 65 3 70 22
10 35 21 7 28 -72z m-4496 20 c-13 -29 -25 -47 -27 -41 -4 14 36 107 44 100 3
-4 -5 -30 -17 -59z m-596 -7 c48 3 50 2 70 -35 40 -77 57 -224 38 -337 -5 -29
-30 -82 -74 -152 -70 -111 -73 -118 -57 -118 6 0 10 6 10 14 0 8 11 28 25 44
14 17 25 32 25 35 0 2 12 26 28 53 l27 49 11 -110 c7 -60 15 -120 19 -132 7
-21 4 -22 -89 -25 -53 -2 -96 0 -96 3 0 3 7 14 15 25 28 37 15 38 -18 1 -29
-31 -39 -36 -68 -32 -19 2 -56 7 -82 10 -58 6 -68 11 -61 30 4 8 9 13 13 11 3
-2 7 6 8 17 1 12 6 42 12 67 5 25 10 69 11 98 0 28 3 52 8 52 4 0 7 26 7 58 0
31 4 70 8 86 7 23 12 27 30 22 58 -18 107 -11 107 15 0 6 -8 5 -21 -2 -28 -15
-87 -5 -109 19 -18 19 -20 58 -6 150 7 39 16 58 37 76 25 21 33 23 75 15 27
-5 70 -8 97 -7z m5547 -77 c-7 -8 -10 -24 -7 -34 3 -14 1 -18 -9 -14 -17 6
-17 6 -2 38 6 14 16 25 21 25 5 0 4 -7 -3 -15z m-2954 -82 c-10 -10 -19 5 -10
18 6 11 8 11 12 0 2 -7 1 -15 -2 -18z m-3206 -298 c0 -8 -4 -15 -10 -15 -5 0
-10 7 -10 15 0 8 5 15 10 15 6 0 10 -7 10 -15z m-275 -75 c0 -7 -6 -15 -12
-17 -8 -3 -13 4 -13 17 0 13 5 20 13 18 6 -3 12 -11 12 -18z m1445 -135 c8 -2
17 -4 20 -5 3 -1 8 -2 12 -1 4 0 10 -9 13 -22 3 -12 10 -31 14 -42 13 -30 31
-136 31 -181 1 -21 7 -57 15 -79 18 -49 18 -58 3 -49 -7 4 -8 3 -4 -5 4 -6 11
-9 15 -6 8 4 35 -65 29 -75 -1 -3 5 -16 15 -30 9 -13 17 -30 17 -37 0 -7 14
-35 31 -64 16 -28 32 -63 35 -78 4 -16 21 -35 45 -51 53 -33 95 -101 105 -170
4 -30 8 -57 9 -60 3 -23 48 -74 106 -120 38 -30 69 -57 69 -60 0 -3 10 -17 23
-30 12 -14 32 -40 45 -58 l23 -32 -28 -1 c-15 -1 -44 -2 -63 -3 -76 -5 -250
73 -250 112 0 6 -11 12 -23 12 -13 0 -32 10 -43 22 -14 17 -15 20 -2 9 22 -16
38 -6 36 23 -2 23 -5 24 -53 27 -27 2 -31 9 -14 26 16 16 1 36 -22 30 -16 -4
-18 -1 -13 20 6 21 3 24 -12 21 -15 -3 -30 14 -66 76 -26 44 -45 82 -43 84 3
3 -4 21 -14 41 -53 105 -70 155 -85 247 -9 56 -14 113 -11 127 4 14 -1 41 -10
63 -11 26 -14 53 -10 79 3 25 0 57 -9 83 -11 30 -13 50 -6 68 6 14 10 40 10
58 0 38 8 49 29 40 9 -3 23 -7 31 -9z m-634 -99 c3 -8 12 -12 20 -9 11 4 14
-4 12 -35 -1 -32 -4 -38 -18 -35 -26 7 -32 -32 -10 -60 l19 -22 10 25 c7 19
10 21 10 7 1 -11 9 -31 19 -45 32 -47 79 -136 91 -174 29 -88 282 -408 322
-408 44 0 118 -47 101 -65 -4 -5 -2 -5 5 -1 11 6 53 -42 53 -61 0 -4 11 -25
25 -46 14 -20 23 -42 19 -49 -4 -6 -3 -8 4 -5 5 4 27 -2 49 -13 35 -18 111
-51 123 -54 15 -4 61 -33 105 -66 29 -22 80 -47 123 -60 l74 -22 -25 -27 c-14
-14 -28 -42 -32 -61 -8 -44 -50 -69 -74 -45 -12 12 -17 12 -30 1 -12 -9 -25
-11 -49 -4 -29 8 -31 11 -21 30 9 16 8 23 -2 29 -10 6 -21 0 -36 -18 -19 -24
-23 -25 -29 -10 -4 11 -17 17 -40 17 -19 0 -34 5 -34 10 0 6 -8 10 -18 10 -25
0 -51 21 -55 45 -6 45 -31 59 -42 24 -5 -15 -10 -18 -18 -10 -7 7 -6 15 3 26
19 23 -3 44 -28 28 -13 -8 -22 -7 -35 2 -22 16 -22 23 0 21 10 0 19 6 21 16 4
19 -28 32 -71 29 -24 -1 -28 2 -22 18 7 24 -11 37 -30 21 -9 -7 -15 -8 -20 0
-3 5 -1 10 4 10 6 0 11 4 11 9 0 12 -38 21 -42 10 -4 -11 -104 90 -199 200
-78 90 -120 160 -151 255 -10 32 -30 75 -43 95 -14 20 -28 52 -31 71 -4 19
-18 49 -30 66 -28 36 -44 129 -44 257 0 87 0 87 25 87 14 0 28 -6 31 -14z
m6218 -408 c3 -16 2 -28 -3 -28 -10 0 -42 97 -40 122 1 16 33 -55 43 -94z m0
-270 c9 -36 7 -160 -3 -154 -5 3 -12 26 -15 51 l-7 46 -52 -7 c-29 -4 -56 -7
-62 -8 -5 0 -11 9 -13 21 -4 27 20 41 73 41 26 0 43 6 50 16 14 22 22 20 29
-6z m-6541 -119 c35 -18 67 -51 60 -62 -3 -6 -1 -7 4 -4 6 4 38 -21 71 -56 67
-68 112 -109 112 -101 0 2 28 -14 61 -37 110 -75 242 -138 281 -134 56 5 135
-27 186 -78 64 -61 73 -65 187 -72 55 -4 129 -16 165 -27 49 -15 89 -20 164
-19 54 1 106 6 116 11 15 8 21 2 39 -43 12 -29 33 -65 47 -81 14 -15 24 -29
23 -30 -31 -27 -109 -46 -109 -26 0 6 -9 10 -21 10 -11 0 -17 5 -14 10 4 6 -5
10 -19 10 -19 0 -26 -5 -26 -18 0 -28 -11 -34 -30 -17 -16 14 -19 14 -32 1 -8
-8 -30 -16 -49 -18 -29 -2 -34 0 -37 20 -5 30 -30 28 -38 -3 -7 -28 -14 -31
-32 -13 -9 9 -15 9 -24 0 -7 -7 -23 -12 -36 -12 -18 0 -23 5 -20 22 2 11 -3
23 -9 25 -19 7 -29 -27 -12 -38 10 -6 4 -9 -18 -9 -23 0 -33 5 -33 15 0 8 -4
15 -9 15 -5 0 -11 9 -14 20 -3 14 -10 18 -21 14 -11 -4 -14 -13 -11 -25 5 -14
2 -17 -8 -13 -9 3 -12 14 -9 30 3 19 0 24 -16 24 -11 0 -22 -6 -25 -14 -4 -9
-14 -12 -26 -9 -18 4 -18 7 -6 20 8 8 15 18 15 23 0 15 -54 16 -77 2 -16 -10
-23 -11 -24 -3 -1 6 -2 16 -3 23 -2 18 -25 21 -32 4 -8 -20 -24 -21 -24 -2 0
21 -21 31 -30 15 -13 -20 -184 57 -248 112 -7 6 -32 19 -56 29 -24 11 -75 52
-114 92 -162 164 -190 194 -200 214 -6 11 -27 32 -47 45 -45 29 -105 139 -77
139 10 1 28 7 42 15 31 18 36 18 63 4z m6535 -170 c-7 -5 -35 -9 -63 -9 -27 0
-60 -3 -72 -6 -18 -5 -23 -2 -23 14 0 18 8 21 68 27 37 3 74 7 82 8 19 3 26
-23 8 -34z m12 -48 c0 -22 -25 -30 -100 -32 -74 -1 -37 -17 43 -18 l57 -1 0
-80 c0 -91 10 -81 -114 -100 -38 -6 -71 -9 -74 -6 -11 12 9 36 35 41 62 14 70
24 20 24 l-48 1 2 80 c2 44 6 84 9 89 8 13 38 19 108 20 54 1 62 -1 62 -18z
m-4861 -96 c0 -29 -2 -36 -9 -25 -5 8 -9 38 -9 65 1 40 3 45 9 25 4 -14 8 -43
9 -65z m-935 46 c17 -18 26 -36 23 -45 -4 -9 -1 -17 6 -17 7 -1 19 -3 27 -4 8
-1 20 -3 27 -4 6 0 19 -21 30 -46 10 -25 24 -45 31 -45 6 0 12 -9 12 -20 0
-20 14 -25 53 -22 10 1 28 -3 40 -10 21 -11 21 -11 2 -19 -26 -10 -113 0 -145
17 -14 7 -47 33 -74 58 -27 25 -58 48 -68 52 -15 4 -17 9 -8 20 7 7 10 35 8
64 -1 27 0 50 3 50 3 0 18 -13 33 -29z m3447 8 c-2 -8 -10 -34 -17 -59 l-14
-45 5 40 c3 22 5 51 5 63 0 15 5 22 13 19 6 -2 10 -11 8 -18z m2327 -402 c-56
-44 -168 -127 -173 -127 -11 0 -4 127 8 141 6 9 48 45 92 80 44 35 82 69 85
74 3 6 6 -26 8 -70 3 -72 1 -81 -20 -98z m-5108 -184 c0 -7 -19 -11 -49 -11
-43 -1 -48 1 -44 18 4 13 16 20 42 22 35 3 51 -6 51 -29z m-140 18 c0 -17 -12
-41 -21 -41 -5 0 -9 11 -9 25 0 16 6 25 15 25 8 0 15 -4 15 -9z m2700 -98 c0
-16 -11 -45 -24 -66 l-24 -39 -4 49 c-4 40 -1 51 16 65 29 24 36 22 36 -9z
m2568 -40 c-2 -14 -17 -19 -63 -24 -33 -3 -79 -9 -102 -13 -39 -7 -43 -6 -43
12 0 18 9 22 58 27 31 3 64 8 72 9 8 2 30 4 48 5 27 1 33 -3 30 -16z m-2685
-121 c5 -40 3 -52 -6 -49 -8 2 -13 30 -14 78 -2 80 9 64 20 -29z m2687 64 c0
-27 -16 -36 -65 -36 -46 0 -65 -9 -65 -31 0 -10 -4 -19 -10 -19 -5 0 -10 10
-10 21 0 18 -5 21 -31 17 -27 -4 -30 -2 -27 21 3 25 7 26 82 33 43 4 84 9 90
12 25 10 36 5 36 -18z m-2819 -45 c-9 -6 -11 -18 -7 -35 5 -21 3 -26 -12 -26
-10 0 -27 6 -37 14 -18 13 -17 15 15 35 19 11 40 21 45 21 6 0 4 -4 -4 -9z
m-1761 -187 c0 -2 -7 -4 -15 -4 -8 0 -15 4 -15 10 0 5 7 7 15 4 8 -4 15 -8 15
-10z m260 -65 c0 -10 -12 -11 -34 -3 -25 10 -19 22 9 16 14 -2 25 -8 25 -13z"/>
<path d="M4734 4256 c-4 -10 -2 -22 4 -28 8 -8 13 -7 18 6 4 10 2 22 -4 28 -8
8 -13 7 -18 -6z"/>
<path d="M4615 4214 c-11 -8 -25 -12 -33 -9 -7 2 -11 1 -8 -3 2 -4 -22 -34
-55 -67 -32 -32 -59 -64 -59 -71 0 -28 28 -19 74 24 38 36 50 42 58 31 8 -11
9 -10 4 3 -3 12 6 26 29 44 19 14 35 32 35 39 0 20 -24 24 -45 9z"/>
<path d="M4423 4023 c-18 -7 -16 -53 2 -53 17 0 39 36 30 50 -7 11 -13 11 -32
3z"/>
<path d="M4332 3908 c-15 -15 -15 -35 -1 -43 12 -8 49 23 49 42 0 16 -32 17
-48 1z"/>
<path d="M4256 3782 c-9 -14 6 -52 19 -52 16 0 29 35 20 50 -7 12 -32 13 -39
2z"/>
<path d="M5662 3324 c10 -10 69 -13 63 -4 -4 6 -20 10 -37 10 -17 0 -29 -3
-26 -6z"/>
<path d="M4470 3291 c0 -10 49 -21 96 -21 50 0 41 16 -12 24 -63 8 -84 8 -84
-3z"/>
<path d="M5635 3284 c-67 -5 -155 -25 -155 -36 0 -4 -5 -8 -11 -8 -6 0 -32 -9
-59 -21 -37 -16 -65 -40 -110 -95 -34 -41 -69 -81 -78 -91 -9 -9 -16 -19 -15
-22 1 -3 -3 -22 -8 -42 -7 -23 -10 -103 -7 -215 5 -195 16 -245 75 -341 15
-25 38 -64 49 -87 12 -23 39 -55 60 -72 l39 -29 197 -5 c108 -3 194 -2 192 2
-3 4 14 12 36 18 59 16 110 47 153 94 81 89 110 199 111 416 1 119 -2 153 -18
190 -10 25 -20 55 -22 68 -15 78 -141 252 -183 252 -9 0 -22 5 -28 11 -12 12
-136 19 -218 13z m217 -96 c55 -26 88 -64 88 -103 0 -8 4 -23 9 -33 26 -48 44
-156 37 -225 -11 -123 -109 -285 -209 -346 -103 -62 -277 -21 -407 97 -51 46
-60 60 -71 108 -18 82 2 312 32 360 11 19 24 34 28 34 4 0 20 11 37 24 33 28
131 83 184 103 59 22 204 12 272 -19z"/>
<path d="M5338 2773 c-32 -20 -42 -52 -27 -90 18 -48 49 -73 90 -73 87 0 123
47 98 128 l-15 47 -59 2 c-43 2 -68 -2 -87 -14z"/>
<path d="M4710 3260 c0 -5 12 -10 28 -10 21 0 24 2 12 10 -20 13 -40 13 -40 0z"/>
<path d="M4775 3230 c-3 -5 -2 -10 4 -10 5 0 8 -9 6 -20 -2 -12 0 -18 6 -15 5
4 6 11 3 17 -4 6 1 8 15 3 23 -7 28 4 9 23 -15 15 -35 16 -43 2z"/>
<path d="M5279 3171 c-21 -8 -98 -98 -110 -128 -9 -24 -3 -53 12 -53 5 0 9 11
9 24 0 25 22 59 79 118 35 38 39 50 10 39z"/>
<path d="M4905 2252 c-5 -4 -19 -25 -30 -47 -34 -67 -179 -130 -370 -159 -16
-2 19 -3 78 0 88 3 119 9 163 29 91 42 132 73 154 116 21 41 24 75 5 61z"/>
<path d="M5300 2213 c0 -5 18 -21 40 -37 22 -17 40 -33 40 -38 0 -4 7 -8 15
-8 8 0 23 -8 33 -18 21 -21 113 -42 176 -42 92 1 300 98 251 116 -9 4 -25 -2
-39 -15 -12 -11 -29 -21 -37 -21 -8 0 -26 -6 -41 -14 -15 -8 -68 -18 -117 -21
-80 -7 -98 -5 -152 15 -33 13 -63 29 -66 37 -3 7 -9 10 -14 7 -5 -3 -20 6 -34
20 -25 25 -55 35 -55 19z"/>
<path d="M4404 1688 c-15 -24 -13 -38 6 -38 26 0 35 19 17 37 -12 12 -16 13
-23 1z"/>
<path d="M5375 1684 c-27 -8 -86 -19 -130 -25 -71 -10 -92 -9 -184 10 -222 45
-301 16 -301 -111 0 -49 4 -62 29 -91 57 -64 156 -95 379 -117 117 -12 184 -6
283 23 84 26 152 119 153 210 0 40 -5 52 -30 76 -24 23 -40 30 -89 33 -34 3
-82 -1 -110 -8z m125 -60 c0 -17 -43 -37 -48 -22 -2 5 -1 20 2 34 6 21 9 23
26 14 11 -6 20 -17 20 -26z m-72 -7 c3 -24 0 -27 -27 -27 -37 0 -44 29 -8 31
19 1 19 2 3 6 -15 4 -16 7 -5 14 21 13 34 5 37 -24z m-515 9 c23 -18 21 -28
-5 -24 -13 2 -24 11 -26 21 -4 20 6 21 31 3z m628 -23 c-9 -33 -32 -44 -24
-11 9 42 13 49 22 44 5 -4 6 -18 2 -33z m-528 20 c3 -5 1 -18 -4 -30 -5 -15
-14 -20 -28 -16 -20 5 -28 32 -14 46 9 9 41 9 46 0z m162 -44 c0 -19 -6 -25
-27 -27 -22 -3 -28 1 -28 17 0 37 10 50 33 42 14 -5 22 -17 22 -32z m85 15
c14 -35 13 -36 -17 -32 -31 3 -44 35 -21 49 21 14 28 11 38 -17z m68 14 c9 -9
12 -9 12 3 0 12 2 12 10 -1 12 -19 -6 -40 -36 -40 -19 0 -24 5 -24 25 0 27 18
33 38 13z m-245 -4 c9 -3 13 -13 10 -25 -8 -28 -47 -21 -51 9 -3 22 11 28 41
16z m-248 -105 c22 -41 13 -48 -14 -11 -23 33 -26 42 -11 42 5 0 17 -14 25
-31z m83 -13 c5 -26 -16 -45 -28 -26 -8 13 -10 13 -10 1 0 -10 -3 -12 -10 -5
-5 5 -7 20 -3 32 7 28 46 27 51 -2z m591 -33 c-16 -18 -46 -16 -53 3 -9 23 -8
24 17 33 28 11 53 -14 36 -36z m-516 20 c8 -14 -12 -53 -27 -53 -16 0 -31 34
-21 50 7 12 42 13 48 3z m63 -26 c10 4 14 -2 14 -21 0 -22 -4 -26 -30 -26 -22
0 -30 5 -30 18 0 21 23 48 28 33 2 -5 10 -7 18 -4z m379 -17 c0 -18 -6 -26
-23 -28 -13 -2 -25 3 -28 12 -10 26 4 48 28 44 17 -2 23 -10 23 -28z m-77 -19
c-3 -29 -25 -35 -41 -10 -15 24 -2 48 23 42 16 -4 20 -12 18 -32z m-218 5 c0
-29 -24 -40 -44 -20 -20 20 -9 44 20 44 19 0 24 -5 24 -24z m65 -11 c0 -23 -4
-30 -20 -30 -15 0 -21 8 -23 33 -3 30 -1 33 20 30 18 -2 23 -9 23 -33z"/>
<path d="M5131 1584 c0 -11 3 -14 6 -6 3 7 2 16 -1 19 -3 4 -6 -2 -5 -13z"/>
<path d="M5300 1594 c0 -8 5 -12 10 -9 6 4 8 11 5 16 -9 14 -15 11 -15 -7z"/>
<path d="M4430 1633 c0 -19 41 -73 55 -73 20 0 19 15 -2 51 -15 26 -53 41 -53
22z"/>
<path d="M4491 1537 c-12 -15 -5 -27 16 -27 7 0 13 9 13 20 0 23 -13 26 -29 7z"/>
<path d="M4541 1507 c-14 -18 21 -52 44 -43 20 7 16 25 -12 43 -17 11 -22 11
-32 0z"/>
<path d="M2064 3446 c-11 -28 4 -48 33 -44 22 2 28 8 28 28 0 20 -6 26 -28 28
-18 2 -29 -2 -33 -12z m46 -16 c0 -5 -7 -10 -15 -10 -8 0 -15 5 -15 10 0 6 7
10 15 10 8 0 15 -4 15 -10z"/>
<path d="M1094 3366 c-12 -30 0 -51 32 -54 29 -3 31 -1 30 30 -1 28 -5 33 -29
36 -17 2 -29 -2 -33 -12z"/>
<path d="M4154 2943 c-39 -5 -54 -35 -54 -108 0 -48 3 -56 32 -80 25 -21 39
-26 65 -22 64 11 114 68 99 115 -9 28 -81 102 -97 100 -8 0 -28 -3 -45 -5z"/>
<path d="M1867 2823 c-4 -3 -7 -13 -7 -22 1 -13 3 -13 11 2 11 19 8 33 -4 20z"/>
<path d="M1840 2769 c0 -5 5 -7 10 -4 6 3 10 8 10 11 0 2 -4 4 -10 4 -5 0 -10
-5 -10 -11z"/>
<path d="M1961 2474 c0 -11 3 -14 6 -6 3 7 2 16 -1 19 -3 4 -6 -2 -5 -13z"/>
<path d="M1292 2738 c7 -20 49 -38 89 -38 38 0 80 23 65 37 -5 4 -11 2 -13 -4
-7 -19 -97 -17 -113 2 -15 18 -33 20 -28 3z"/>
<path d="M1120 2512 c0 -22 -3 -61 -6 -88 l-6 -49 16 29 c18 31 22 131 6 141
-6 4 -10 -9 -10 -33z"/>
<path d="M2284 1149 c-10 -17 13 -36 27 -22 12 12 4 33 -11 33 -5 0 -12 -5
-16 -11z"/>
<path d="M2418 1145 c-3 -3 -19 -7 -34 -8 -40 -3 -45 -34 -7 -39 41 -5 85 11
81 31 -3 16 -29 27 -40 16z"/>
<path d="M2090 1089 c-40 -22 -45 -43 -12 -47 26 -4 72 32 72 55 0 18 -18 16
-60 -8z"/>
<path d="M1975 1070 c-8 -13 3 -30 20 -30 14 0 27 24 18 34 -10 9 -31 7 -38
-4z"/>
<path d="M2087 1024 c-9 -10 2 -24 19 -24 8 0 14 7 14 15 0 15 -21 21 -33 9z"/>
<path d="M2240 995 c0 -10 7 -15 18 -13 21 4 19 22 -2 26 -10 2 -16 -3 -16
-13z"/>
<path d="M2017 994 c-9 -10 2 -24 19 -24 8 0 14 7 14 15 0 15 -21 21 -33 9z"/>
<path d="M2122 964 c4 -21 22 -23 26 -1 2 10 -3 17 -13 17 -10 0 -15 -6 -13
-16z"/>
<path d="M2296 925 c-3 -9 1 -18 10 -22 19 -7 28 2 21 22 -8 19 -23 19 -31 0z"/>
<path d="M1971 786 c-31 -32 -32 -35 -14 -44 10 -6 23 -8 29 -4 20 14 54 65
48 73 -10 17 -30 9 -63 -25z"/>
<path d="M2150 770 c-12 -7 -12 -12 -3 -21 9 -9 16 -9 27 1 26 21 5 39 -24 20z"/>
<path d="M1873 736 c-10 -11 -9 -15 3 -20 26 -10 34 -7 34 14 0 23 -19 26 -37
6z"/>
<path d="M2000 720 c0 -13 5 -18 15 -14 8 4 15 12 15 20 0 8 -7 14 -15 14 -8
0 -15 -9 -15 -20z"/>
<path d="M2331 726 c-9 -10 -9 -16 -1 -21 17 -10 37 12 24 25 -8 8 -15 6 -23
-4z"/>
<path d="M2224 709 c-10 -17 13 -36 27 -22 12 12 4 33 -11 33 -5 0 -12 -5 -16
-11z"/>
<path d="M2040 685 c0 -10 7 -15 18 -13 21 4 19 22 -2 26 -10 2 -16 -3 -16
-13z"/>
<path d="M5440 4748 c-17 -18 -36 -42 -42 -52 -10 -18 -7 -19 37 -13 26 4 56
7 66 7 11 0 19 7 19 16 0 18 -31 74 -41 74 -4 0 -21 -15 -39 -32z"/>
<path d="M3190 4750 l-45 -20 40 6 c22 4 47 13 55 20 19 19 4 17 -50 -6z"/>
<path d="M3171 4660 l-22 -40 25 -64 c14 -36 26 -73 26 -83 0 -14 5 -11 21 12
11 17 26 42 34 57 l15 27 -33 -10 c-17 -5 -32 -9 -32 -9 -1 0 1 30 3 66 5 82
-7 97 -37 44z"/>
<path d="M4981 4591 c-26 -4 -42 -17 -66 -51 -18 -25 -30 -48 -28 -52 5 -10
54 -10 106 -1 40 6 47 16 62 81 7 35 2 37 -74 23z"/>
<path d="M4850 4571 c0 -4 -11 -25 -25 -45 -33 -48 -16 -46 23 3 36 45 38 51
17 51 -8 0 -15 -4 -15 -9z"/>
<path d="M2744 4543 c2 -10 7 -28 11 -40 3 -13 13 -23 21 -23 17 0 17 2 0 45
-15 36 -41 50 -32 18z"/>
<path d="M4445 4540 c-66 -10 -121 -19 -121 -19 -1 -1 -7 -14 -14 -31 -7 -16
-20 -32 -29 -35 -13 -4 -16 -14 -13 -41 4 -34 6 -36 34 -30 17 3 62 6 99 6 64
0 70 2 79 24 5 15 22 29 44 36 37 12 110 86 100 101 -7 12 -38 10 -179 -11z
m-120 -130 c3 -5 1 -10 -4 -10 -6 0 -11 5 -11 10 0 6 2 10 4 10 3 0 8 -4 11
-10z"/>
<path d="M4648 4505 c-32 -36 -39 -60 -24 -80 17 -23 139 -11 134 13 -2 13
-14 15 -55 13 -28 -1 -54 2 -57 7 -3 5 4 22 15 36 28 36 17 45 -13 11z"/>
<path d="M5460 4514 c-50 -11 -203 -42 -217 -44 -8 -1 -55 -81 -51 -85 5 -5
250 20 305 31 13 2 25 16 32 35 13 37 15 79 4 78 -5 -1 -37 -7 -73 -15z"/>
<path d="M3992 4496 c-91 -11 -95 -12 -130 -52 -21 -22 -45 -43 -54 -46 -14
-6 -15 -11 -5 -40 6 -18 13 -35 14 -37 1 -2 13 3 25 11 13 9 50 17 83 20 33 2
77 12 97 22 20 10 41 15 46 12 6 -3 12 2 16 12 3 9 17 35 30 57 14 22 25 43
26 48 0 9 -29 8 -148 -7z"/>
<path d="M3710 4467 c-60 -8 -79 -14 -93 -33 -17 -22 -16 -24 7 -59 14 -20 26
-41 28 -47 5 -15 77 21 92 46 6 10 26 33 44 53 17 19 32 39 32 44 0 10 -4 10
-110 -4z"/>
<path d="M4797 4453 c-17 -16 -4 -24 35 -21 55 4 64 28 11 28 -22 0 -43 -3
-46 -7z"/>
<path d="M2785 4421 c-85 -27 -184 -67 -140 -56 12 3 52 9 90 14 168 23 165
22 165 47 0 30 -4 29 -115 -5z"/>
<path d="M1330 4421 c0 -28 11 -52 21 -45 16 9 11 64 -6 64 -8 0 -15 -9 -15
-19z"/>
<path d="M3415 4429 c-22 -4 -67 -10 -100 -14 -52 -7 -56 -9 -32 -16 16 -4 34
-12 41 -18 7 -6 17 -7 21 -3 5 4 5 1 1 -6 -4 -7 -3 -18 2 -25 5 -7 13 -24 18
-40 9 -27 10 -27 52 43 24 38 42 73 40 78 -1 4 -21 5 -43 1z"/>
<path d="M5770 4415 c-52 -8 -125 -16 -163 -20 -37 -4 -65 -11 -62 -16 8 -12
222 -11 246 1 13 7 19 7 19 0 0 -5 16 -10 35 -10 28 0 35 4 35 20 0 10 8 24
18 29 15 9 14 10 -8 10 -14 -1 -68 -7 -120 -14z"/>
<path d="M3090 4380 c-24 -8 -24 -8 -2 -9 15 -1 22 -7 22 -22 0 -28 -21 -46
-63 -54 -27 -5 -38 -14 -46 -35 -11 -33 -6 -40 25 -40 18 0 35 17 69 67 61 92
60 114 -5 93z"/>
<path d="M1463 4357 c-51 -21 -53 -24 -53 -59 l0 -38 55 27 c50 25 55 30 55
60 0 18 -1 33 -2 32 -2 -1 -27 -11 -55 -22z"/>
<path d="M2970 4360 c0 -5 7 -10 15 -10 8 0 15 5 15 10 0 6 -7 10 -15 10 -8 0
-15 -4 -15 -10z"/>
<path d="M2780 4339 c-30 -5 -75 -11 -99 -15 -32 -4 -40 -9 -32 -17 6 -6 11
-25 11 -42 0 -56 29 -70 145 -70 l100 0 -2 39 c-2 22 -8 43 -15 48 -10 6 -11
11 0 28 26 42 8 47 -108 29z"/>
<path d="M2394 4332 c5 -8 76 -4 76 4 0 2 -18 4 -41 4 -22 0 -38 -4 -35 -8z"/>
<path d="M3242 4307 c-17 -47 -17 -47 28 -47 46 0 51 13 19 54 -27 34 -32 33
-47 -7z"/>
<path d="M2220 4320 c0 -5 16 -10 35 -10 19 0 35 5 35 10 0 6 -16 10 -35 10
-19 0 -35 -4 -35 -10z"/>
<path d="M3549 4308 c-10 -18 -9 -20 6 -15 9 4 21 7 26 7 5 0 9 7 9 15 0 22
-28 18 -41 -7z"/>
<path d="M2053 4308 c2 -7 12 -13 22 -13 10 0 20 6 23 13 2 7 -6 12 -23 12
-17 0 -25 -5 -22 -12z"/>
<path d="M4300 4305 c-36 -6 -64 -14 -62 -18 1 -4 2 -12 2 -18 0 -11 54 -8
125 5 11 3 27 5 35 5 8 1 20 9 27 20 11 17 8 19 -25 18 -20 0 -66 -6 -102 -12z"/>
<path d="M1930 4300 c0 -5 16 -10 35 -10 19 0 35 5 35 10 0 6 -16 10 -35 10
-19 0 -35 -4 -35 -10z"/>
<path d="M1293 4284 c-18 -8 -33 -21 -33 -29 0 -8 -4 -15 -10 -15 -5 0 -10 -9
-10 -20 0 -24 12 -25 62 -3 33 15 38 21 38 50 0 37 -2 37 -47 17z"/>
<path d="M1745 4290 c-15 -6 -6 -9 33 -9 28 -1 52 4 52 9 0 12 -57 12 -85 0z"/>
<path d="M3140 4265 c0 -8 5 -15 10 -15 6 0 10 7 10 15 0 8 -4 15 -10 15 -5 0
-10 -7 -10 -15z"/>
<path d="M2310 4260 c0 -5 4 -10 9 -10 6 0 13 5 16 10 3 6 -1 10 -9 10 -9 0
-16 -4 -16 -10z"/>
<path d="M2371 4225 c-27 -57 -17 -95 23 -88 24 5 26 10 26 53 0 90 -17 103
-49 35z"/>
<path d="M3854 4223 c-39 -43 -45 -90 -9 -85 37 5 50 13 38 20 -6 4 -14 18
-18 32 -5 22 -1 27 27 39 18 7 36 13 41 12 4 0 7 4 7 9 0 25 -53 8 -86 -27z"/>
<path d="M4010 4224 c0 -8 5 -12 10 -9 6 4 8 11 5 16 -9 14 -15 11 -15 -7z"/>
<path d="M4077 4233 c-17 -16 -5 -33 22 -33 24 0 28 3 24 20 -5 19 -33 27 -46
13z"/>
<path d="M1160 4220 c0 -5 4 -10 9 -10 6 0 13 5 16 10 3 6 -1 10 -9 10 -9 0
-16 -4 -16 -10z"/>
<path d="M3711 4213 c-70 -20 -77 -37 -12 -30 60 7 64 9 59 29 -2 12 -10 12
-47 1z"/>
<path d="M426 4168 c-28 -43 -24 -65 10 -54 32 11 56 53 44 76 -15 28 -23 25
-54 -22z"/>
<path d="M2088 4203 c-21 -3 -28 -10 -28 -27 0 -32 22 -48 62 -44 30 4 33 7
36 41 3 40 2 41 -70 30z"/>
<path d="M348 4179 c-18 -10 -25 -39 -10 -39 8 0 42 37 42 45 0 8 -13 5 -32
-6z"/>
<path d="M2477 4176 c-8 -20 2 -26 40 -26 26 0 33 4 33 20 0 16 -7 20 -34 20
-20 0 -36 -6 -39 -14z"/>
<path d="M3450 4159 c-11 -19 -10 -21 5 -16 9 4 19 7 21 7 3 0 2 6 -2 13 -5 7
0 6 11 -3 16 -13 18 -13 13 0 -8 24 -36 23 -48 -1z"/>
<path d="M2217 4163 c-4 -3 -7 -15 -7 -25 0 -29 44 -20 48 10 3 16 -2 22 -16
22 -10 0 -22 -3 -25 -7z"/>
<path d="M3231 4150 c6 -67 -11 -77 -42 -26 l-20 34 -49 -13 c-28 -7 -50 -11
-50 -8 0 3 -7 0 -15 -7 -22 -18 -18 -30 9 -30 19 0 27 -9 40 -47 37 -104 66
-131 66 -61 l1 43 26 -43 c21 -35 29 -41 47 -36 29 9 27 4 38 96 5 46 13 90
18 99 7 14 3 16 -31 15 -28 -1 -39 -5 -38 -16z"/>
<path d="M3761 4134 c0 -11 3 -14 6 -6 3 7 2 16 -1 19 -3 4 -6 -2 -5 -13z"/>
<path d="M1798 4126 c-43 -5 -78 -12 -78 -16 0 -3 10 -16 23 -27 19 -18 30
-20 87 -14 68 6 84 21 58 51 -11 13 -26 14 -90 6z"/>
<path d="M3700 4122 c0 -17 42 -12 48 5 2 9 -5 12 -22 11 -14 -1 -26 -8 -26
-16z"/>
<path d="M4001 4118 c-8 -13 -21 -34 -29 -47 l-16 -23 45 7 c68 11 71 16 41
53 l-27 32 -14 -22z"/>
<path d="M4090 4131 c0 -10 24 -21 46 -21 8 0 14 7 14 15 0 10 -10 15 -30 15
-16 0 -30 -4 -30 -9z"/>
<path d="M2485 4110 c3 -5 10 -10 16 -10 5 0 9 5 9 10 0 6 -7 10 -16 10 -8 0
-12 -4 -9 -10z"/>
<path d="M1535 4094 c-49 -7 -109 -13 -133 -13 -28 -1 -45 -6 -48 -16 -12 -30
12 -40 85 -37 58 3 71 7 71 20 0 14 2 14 9 3 11 -17 110 -8 123 11 12 20 10
48 -4 47 -7 -1 -53 -8 -103 -15z"/>
<path d="M2390 4100 c0 -5 7 -10 15 -10 8 0 15 5 15 10 0 6 -7 10 -15 10 -8 0
-15 -4 -15 -10z"/>
<path d="M2802 4103 l-24 -5 20 -21 c11 -12 25 -48 32 -79 8 -39 16 -58 26
-58 8 0 17 -7 20 -15 4 -8 17 -15 30 -15 26 0 101 27 123 44 8 6 30 16 50 23
36 12 35 12 -16 7 -47 -5 -52 -4 -58 18 -16 57 -28 78 -46 78 -10 0 -22 8 -27
17 -9 16 -11 16 -27 0 -21 -22 -57 -23 -49 -2 6 15 -6 17 -54 8z m157 -127
c-6 -6 -9 -6 -10 0 0 5 -3 22 -5 38 -3 16 -2 36 2 45 5 11 10 1 14 -29 4 -25
4 -49 -1 -54z"/>
<path d="M3451 4100 c-25 -3 -46 -11 -49 -19 -4 -11 5 -13 44 -7 47 6 74 20
57 28 -4 2 -28 1 -52 -2z"/>
<path d="M2110 4065 c0 -8 9 -15 20 -15 11 0 20 7 20 15 0 8 -9 15 -20 15 -11
0 -20 -7 -20 -15z"/>
<path d="M128 4063 c7 -3 16 -2 19 1 4 3 -2 6 -13 5 -11 0 -14 -3 -6 -6z"/>
<path d="M1222 4045 c-16 -35 -16 -35 17 -35 32 0 61 22 61 46 0 9 -11 14 -33
14 -26 0 -36 -6 -45 -25z"/>
<path d="M1893 4063 c-57 -4 -58 -5 -43 -33 8 -16 14 -17 40 -7 16 6 30 15 30
19 0 4 7 8 15 8 8 0 15 5 15 10 0 6 -1 9 -2 8 -2 -1 -27 -3 -55 -5z"/>
<path d="M1110 4043 c0 -35 16 -46 55 -39 27 5 35 11 31 22 -3 9 -6 20 -6 25
0 5 -18 9 -40 9 -31 0 -40 -4 -40 -17z"/>
<path d="M425 4041 l-60 -6 3 -35 c5 -44 9 -50 32 -50 13 0 22 9 27 28 l7 27
6 -25 c5 -21 12 -25 45 -25 39 0 40 1 42 38 1 27 -4 40 -17 47 -10 6 -20 9
-22 8 -2 -1 -30 -4 -63 -7z"/>
<path d="M710 4029 c-15 -28 -5 -36 18 -16 10 10 24 17 30 17 7 0 12 5 12 10
0 19 -49 10 -60 -11z"/>
<path d="M840 4038 c1 -42 13 -58 46 -58 39 0 44 6 37 43 -5 24 -10 27 -44 27
-25 0 -39 -5 -39 -12z"/>
<path d="M958 4045 c-3 -3 -3 -17 0 -30 4 -21 10 -25 38 -25 31 0 34 3 34 30
0 27 -3 30 -33 30 -19 0 -36 -2 -39 -5z"/>
<path d="M2405 4040 c3 -5 1 -11 -5 -15 -5 -3 -10 -36 -10 -73 0 -67 0 -68 33
-82 17 -7 35 -15 38 -17 4 -2 10 6 14 19 8 22 8 22 12 -6 4 -27 7 -28 41 -21
20 3 42 7 49 7 8 1 8 6 0 20 -10 16 -8 22 13 38 24 19 24 21 -2 24 -8 0 -15
21 -18 48 -3 26 -8 49 -10 52 -9 9 -160 15 -155 6z m84 -97 c1 -7 -3 -13 -9
-13 -5 0 -10 15 -9 33 0 27 2 29 9 12 5 -11 9 -26 9 -32z"/>
<path d="M4148 4038 c-35 -6 -59 -16 -63 -25 -3 -9 -4 -17 -2 -19 7 -8 123 28
137 41 17 18 16 18 -72 3z"/>
<path d="M167 4022 c-26 -3 -28 -6 -22 -33 5 -22 2 -36 -11 -50 -16 -18 -16
-19 9 -19 14 0 29 4 32 10 3 5 28 12 56 16 l50 7 -3 36 c-3 35 -4 36 -43 36
-22 0 -53 -1 -68 -3z"/>
<path d="M32 4013 c-31 -4 -32 -6 -32 -49 0 -32 4 -44 14 -44 8 0 18 5 21 10
3 6 24 10 46 10 39 0 39 0 39 40 0 44 0 44 -88 33z"/>
<path d="M2153 4013 c-22 -4 -22 -6 -8 -34 9 -16 22 -29 30 -29 13 0 15 -13
13 -66 -2 -45 1 -68 9 -71 9 -3 13 19 15 78 2 50 7 84 14 86 16 5 34 -51 34
-105 l0 -45 20 26 c11 14 20 29 20 34 0 5 13 34 30 66 33 65 25 81 -28 54 -24
-12 -32 -12 -47 0 -18 13 -56 15 -102 6z"/>
<path d="M3858 4001 c-19 -4 -44 -30 -82 -84 -31 -42 -56 -79 -56 -81 0 -6
122 24 142 35 15 8 78 116 78 134 0 6 -47 5 -82 -4z"/>
<path d="M1982 3969 c-37 -39 -21 -62 29 -41 13 6 14 12 4 36 l-12 28 -21 -23z"/>
<path d="M3572 3954 c-105 -23 -151 -38 -162 -51 -8 -11 -26 -34 -40 -52 -14
-19 -32 -40 -41 -48 -9 -9 -14 -24 -11 -35 4 -17 10 -18 61 -12 31 4 66 10 78
15 11 4 50 13 85 19 88 15 98 19 98 37 0 9 3 13 7 10 3 -4 20 12 36 36 17 23
43 59 59 79 l29 38 -26 -2 c-14 -1 -92 -17 -173 -34z m18 -98 c0 -14 -8 -27
-17 -31 -15 -5 -16 -4 -5 6 6 7 12 21 12 31 0 10 2 18 5 18 3 0 5 -11 5 -24z
m-25 -5 c-8 -13 -45 -15 -45 -2 0 5 10 11 23 13 27 5 31 3 22 -11z"/>
<path d="M1872 3968 c-6 -6 -45 -12 -92 -12 -73 -1 -84 -3 -101 -25 -28 -34
-24 -51 12 -51 17 0 29 -3 27 -7 -28 -58 -33 -63 -59 -63 -15 0 -31 -4 -34
-10 -4 -6 6 -7 25 -4 22 5 30 3 30 -8 0 -23 -24 -49 -46 -50 -18 -2 -21 -9
-22 -63 -2 -59 -2 -59 13 -32 23 40 63 35 56 -6 -1 -5 6 -6 16 -3 10 3 35 8
57 12 34 6 41 12 60 54 16 37 27 50 49 54 28 6 29 6 25 71 -3 61 -2 65 12 47
15 -18 16 -18 33 4 20 27 22 62 3 87 -15 20 -47 22 -64 5z m-139 -53 c-3 -9
-8 -14 -10 -11 -3 3 -2 9 2 15 9 16 15 13 8 -4z m43 -163 c-15 -15 -16 -14
-16 9 0 14 6 31 13 38 10 10 13 8 15 -10 2 -12 -3 -29 -12 -37z"/>
<path d="M2700 3953 c0 -17 -3 -38 -6 -47 -4 -11 0 -16 15 -16 18 0 20 4 14
33 -9 50 -22 68 -23 30z"/>
<path d="M4086 3963 l-38 -4 7 -47 c4 -26 9 -51 12 -56 6 -9 80 -2 91 8 3 4 9
29 12 56 7 56 13 53 -84 43z"/>
<path d="M7049 3949 c-8 -5 -26 -9 -41 -9 -14 0 -48 -5 -75 -11 l-49 -11 -33
-87 c-19 -47 -39 -99 -46 -116 -7 -16 -30 -77 -50 -135 -20 -58 -44 -110 -52
-117 -11 -8 -16 -34 -17 -93 -2 -73 -4 -83 -27 -103 -14 -12 -31 -34 -37 -49
-11 -28 -11 -28 26 -24 20 3 79 8 130 11 l93 7 20 40 21 40 -99 -3 -98 -4 0
45 0 45 58 3 57 3 0 -35 c0 -19 4 -37 8 -40 15 -9 52 6 52 21 0 9 6 13 13 10
25 -9 28 -5 92 137 19 43 35 88 35 99 0 11 6 25 14 31 7 6 21 31 30 56 10 25
25 53 34 63 12 13 16 39 16 100 0 108 -7 135 -38 135 -13 0 -30 -4 -37 -9z
m-5 -175 c20 -19 11 -40 -10 -23 -13 10 -20 39 -10 39 3 0 12 -7 20 -16z
m-217 -161 c-3 -10 -5 -4 -5 12 0 17 2 24 5 18 2 -7 2 -21 0 -30z"/>
<path d="M3310 3890 c0 -5 4 -10 9 -10 6 0 13 5 16 10 3 6 -1 10 -9 10 -9 0
-16 -4 -16 -10z"/>
<path d="M70 3860 c-12 -8 -11 -10 7 -10 12 0 25 5 28 10 8 13 -15 13 -35 0z"/>
<path d="M1987 3849 c-30 -18 -38 -52 -19 -93 14 -32 20 -36 52 -36 50 0 73
19 65 52 -7 25 -9 26 -61 21 -50 -5 -54 -4 -54 15 0 18 8 23 40 28 22 4 43 11
46 15 7 13 -47 11 -69 -2z"/>
<path d="M699 3828 c0 -13 0 -62 1 -109 l1 -85 -43 -13 c-24 -8 -57 -17 -73
-22 -17 -5 -38 -22 -48 -38 -16 -27 -16 -32 5 -92 11 -35 24 -68 29 -73 9 -10
127 12 135 26 10 15 34 -13 34 -40 0 -36 12 -19 26 34 9 36 9 47 -2 51 -7 2
-15 28 -19 56 -4 29 -13 64 -20 79 -12 25 -12 27 14 30 28 3 31 19 18 82 -4
16 -11 54 -17 83 -12 54 -39 75 -41 31z"/>
<path d="M3247 3834 c-13 -13 -7 -24 14 -24 11 0 19 5 17 12 -5 14 -22 21 -31
12z"/>
<path d="M5 3730 c4 -52 7 -105 6 -118 -2 -41 15 -59 49 -54 37 5 37 5 44 107
3 44 6 81 6 81 1 6 57 -11 62 -19 3 -6 9 -41 13 -79 l7 -69 42 3 41 3 -3 62
c-3 44 1 69 13 87 9 14 15 39 13 57 l-3 33 -149 1 -149 0 8 -95z"/>
<path d="M436 3763 c-10 -111 -11 -152 -4 -159 4 -3 19 -3 35 0 26 6 30 12 41
71 6 35 12 85 12 110 l0 45 -39 0 -39 0 -6 -67z"/>
<path d="M3048 3825 c-3 -3 -25 -9 -49 -14 l-44 -9 48 -1 c26 -1 50 -1 55 -2
4 0 8 7 10 15 3 15 -9 22 -20 11z"/>
<path d="M2836 3772 c-7 -12 12 -80 24 -87 11 -7 13 19 4 64 -6 30 -18 39 -28
23z"/>
<path d="M3195 3740 c-3 -5 -1 -10 4 -10 6 0 11 5 11 10 0 6 -2 10 -4 10 -3 0
-8 -4 -11 -10z"/>
<path d="M3618 3709 c-9 -5 -15 -16 -12 -23 3 -7 -12 -31 -33 -52 -40 -41 -93
-109 -93 -118 0 -3 20 -6 45 -6 31 0 47 5 55 18 11 16 11 16 6 -1 -3 -10 -6
-30 -6 -43 0 -13 -3 -23 -7 -22 -16 3 -117 -15 -105 -19 6 -3 12 -14 12 -26
l-1 -22 -19 23 c-18 22 -20 22 -39 5 -12 -10 -21 -22 -21 -28 0 -5 20 -36 45
-67 48 -62 53 -75 31 -80 -12 -2 -12 -6 -2 -19 10 -15 16 -15 42 -4 43 18 116
128 112 169 -3 27 1 31 27 36 28 5 30 9 36 54 3 28 11 52 18 54 11 4 33 47 62
121 9 23 9 24 -41 17 -43 -6 -51 -4 -57 11 -6 17 -22 33 -33 33 -3 -1 -13 -5
-22 -11z m-18 -83 c0 -3 -7 -12 -16 -20 -8 -9 -11 -16 -5 -16 15 0 14 -17 -2
-23 -18 -7 -16 41 3 53 17 11 20 12 20 6z"/>
<path d="M3831 3689 c0 -19 4 -43 9 -54 6 -13 7 -2 3 30 -7 59 -13 72 -12 24z"/>
<path d="M2554 3674 c10 -40 22 -50 41 -34 20 17 19 36 -2 44 -10 3 -24 9 -32
12 -11 5 -12 0 -7 -22z"/>
<path d="M2936 3619 c6 -54 4 -64 -12 -76 -17 -12 -17 -18 -5 -75 14 -68 26
-98 41 -98 6 0 8 49 4 133 -8 166 -8 170 -23 175 -9 3 -10 -11 -5 -59z"/>
<path d="M3018 3675 c-2 -3 0 -38 6 -78 10 -63 14 -72 34 -75 20 -3 22 1 22
40 0 83 -10 118 -35 118 -12 0 -24 -2 -27 -5z"/>
<path d="M2707 3663 c-4 -7 -2 -15 4 -19 12 -7 59 -107 59 -124 0 -6 -9 -10
-20 -10 -12 0 -20 -7 -20 -17 0 -12 -3 -14 -8 -6 -4 6 -21 13 -37 15 -19 2
-33 11 -40 26 -16 36 -23 26 -20 -30 1 -29 2 -76 3 -104 l2 -51 48 -9 47 -9 0
-45 c0 -70 23 -63 67 20 l38 70 -46 -7 c-34 -4 -48 -2 -55 8 -14 23 -11 25 49
39 31 7 60 14 64 16 4 3 -9 31 -27 63 -19 33 -35 69 -35 80 0 12 -8 29 -17 39
-10 9 -25 28 -34 42 -10 15 -18 20 -22 13z"/>
<path d="M850 3628 c0 -12 3 -18 7 -14 11 10 12 36 2 36 -5 0 -9 -10 -9 -22z"/>
<path d="M3470 3643 c-53 -9 -114 -35 -127 -53 -7 -10 -27 -21 -44 -25 -31 -7
-50 -32 -31 -44 5 -3 17 -28 24 -56 11 -38 20 -51 36 -53 20 -3 22 1 22 42 0
41 2 45 28 49 l27 4 -26 2 c-24 1 -27 5 -27 41 -1 41 16 60 52 60 18 0 23 -45
6 -55 -5 -3 -10 -13 -10 -21 0 -8 5 -14 10 -14 6 0 10 7 10 15 0 8 6 15 13 16
6 0 27 18 45 41 31 39 40 59 25 57 -5 -1 -19 -4 -33 -6z"/>
<path d="M2507 3633 c-11 -10 -8 -266 3 -283 6 -10 10 35 10 138 0 83 -1 152
-3 152 -2 0 -7 -3 -10 -7z"/>
<path d="M6692 3600 c0 -14 2 -19 5 -12 2 6 2 18 0 25 -3 6 -5 1 -5 -13z"/>
<path d="M1643 3593 c-13 -2 -23 -10 -23 -16 0 -7 -3 -48 -6 -92 -6 -85 5
-135 30 -135 8 0 17 4 20 9 5 7 36 210 36 233 0 8 -18 9 -57 1z"/>
<path d="M3360 3560 c0 -5 9 -10 20 -10 11 0 20 5 20 10 0 6 -9 10 -20 10 -11
0 -20 -4 -20 -10z"/>
<path d="M34 3530 c-22 -9 -42 -30 -28 -30 19 0 84 24 84 32 0 10 -28 9 -56
-2z"/>
<path d="M319 3476 c-31 -25 -58 -49 -60 -54 -6 -14 -49 -25 -49 -13 0 6 14
25 30 43 17 17 29 32 27 34 -1 2 -20 -1 -42 -6 -28 -6 -51 -21 -77 -50 -31
-34 -40 -40 -55 -31 -10 6 -14 11 -9 11 5 0 2 8 -5 17 -12 15 -12 16 3 10 12
-4 21 0 28 13 17 32 -18 36 -83 9 -27 -11 -28 -15 -26 -72 1 -34 8 -68 15 -76
7 -9 28 -36 46 -61 31 -44 32 -45 39 -20 4 14 8 41 9 60 1 26 9 41 31 59 l31
24 -7 -84 c-4 -46 -8 -89 -10 -96 -2 -6 -33 -14 -68 -18 -74 -8 -90 -15 -81
-38 9 -23 103 -12 127 15 17 20 17 19 17 -16 0 -20 7 -53 15 -73 20 -48 20
-50 -20 -57 -19 -4 -35 -9 -35 -11 0 -7 52 -98 72 -128 19 -27 22 -28 81 -22
34 3 93 11 130 17 l68 10 40 79 40 80 -51 -7 c-37 -5 -62 -2 -95 11 -45 17
-71 15 -168 -12 -16 -4 -18 2 -15 64 2 37 8 68 13 69 6 0 51 6 100 13 95 14
155 35 155 55 0 12 -29 10 -136 -9 l-41 -7 -6 63 c-5 52 -3 65 13 78 28 24
100 111 100 121 0 4 -8 17 -17 29 l-18 21 -56 -44z m-88 -243 c2 -23 0 -45 -4
-49 -4 -4 -7 17 -7 46 0 62 7 64 11 3z"/>
<path d="M3080 3501 c-19 -37 -12 -51 23 -51 45 0 50 7 25 41 -26 34 -34 36
-48 10z"/>
<path d="M7120 3433 c-19 -38 -36 -71 -38 -75 -2 -5 15 -8 37 -8 l40 0 0 75
c0 41 -1 75 -3 75 -1 0 -17 -30 -36 -67z"/>
<path d="M7492 3430 c0 -19 2 -27 5 -17 2 9 2 25 0 35 -3 9 -5 1 -5 -18z"/>
<path d="M466 3421 c-4 -5 -2 -20 3 -33 9 -21 10 -21 10 10 1 32 -3 39 -13 23z"/>
<path d="M3087 3403 c-4 -3 -7 -24 -7 -46 0 -35 -2 -39 -21 -34 -18 5 -20 2
-14 -21 4 -15 12 -34 20 -42 7 -8 18 -32 25 -54 l12 -38 49 6 49 7 0 -52 c0
-41 6 -58 28 -88 16 -20 32 -45 37 -56 7 -17 9 -14 15 18 5 25 1 65 -10 113
l-17 74 49 0 48 0 -16 25 c-20 30 -50 33 -59 5 -3 -11 -10 -20 -15 -20 -10 0
-24 31 -21 47 1 6 -3 14 -9 18 -5 3 -10 30 -10 58 -1 71 -15 87 -77 87 -27 0
-53 -3 -56 -7z"/>
<path d="M402 3380 c-16 -26 -15 -29 8 -23 11 3 20 14 20 24 0 25 -12 24 -28
-1z"/>
<path d="M500 3290 c0 -35 2 -61 5 -59 7 8 9 108 2 116 -4 3 -7 -22 -7 -57z"/>
<path d="M7290 3310 c0 -5 13 -10 29 -10 22 0 30 -6 35 -25 4 -14 11 -25 16
-25 11 0 55 -137 65 -202 7 -43 5 -48 -12 -48 -14 0 -28 -21 -56 -88 -20 -48
-37 -94 -37 -102 -2 -80 -44 227 -45 325 0 5 11 12 24 15 13 3 28 15 32 28 8
20 5 22 -26 22 -31 0 -35 3 -35 25 0 16 6 25 16 25 8 0 12 5 9 10 -3 6 -20 10
-36 10 -30 0 -30 0 -24 -47 14 -123 35 -309 35 -320 0 -6 -12 -13 -27 -15 -25
-3 -28 -9 -39 -63 -13 -65 1 -250 17 -239 5 3 9 13 9 22 1 16 1 16 11 0 7 -13
23 -18 57 -18 26 0 53 4 60 9 7 4 26 50 41 102 16 52 33 105 39 119 l11 25 0
-27 c1 -15 8 -33 16 -41 12 -12 15 -55 18 -214 1 -109 3 17 5 281 l2 478 -36
-6 c-19 -4 -42 -10 -50 -13 -8 -3 -14 0 -14 6 0 7 -21 11 -55 11 -30 0 -55 -4
-55 -10z m3 -520 c4 -33 -1 -57 -18 -93 -14 -31 -24 -44 -28 -35 -3 8 -1 21 3
29 5 7 14 44 20 82 7 38 13 67 15 65 2 -2 5 -23 8 -48z"/>
<path d="M7096 3300 c-45 -4 -51 -8 -63 -37 l-13 -33 54 0 c72 0 86 6 86 40 0
35 -3 37 -64 30z"/>
<path d="M1607 3293 c-14 -13 -6 -24 15 -21 27 4 36 28 11 28 -11 0 -23 -3
-26 -7z"/>
<path d="M729 3273 c-13 -15 -11 -16 16 -9 41 10 56 26 23 26 -14 0 -32 -7
-39 -17z"/>
<path d="M630 3260 c-12 -8 -11 -10 8 -10 12 0 22 5 22 10 0 13 -11 13 -30 0z"/>
<path d="M1840 3239 c-25 -3 -70 -10 -100 -14 -30 -4 -58 -10 -61 -14 -9 -9
-69 -190 -69 -209 0 -13 3 -12 20 3 11 10 20 13 20 7 0 -13 35 -15 103 -6 36
5 48 12 53 28 4 11 22 53 41 91 45 90 54 114 45 118 -4 2 -27 0 -52 -4z"/>
<path d="M2889 3218 c-7 -18 -21 -45 -31 -60 l-19 -28 58 0 c82 0 87 6 58 68
-28 60 -47 66 -66 20z"/>
<path d="M3824 3218 c-3 -5 -4 -12 0 -15 7 -8 56 6 56 16 0 12 -49 11 -56 -1z"/>
<path d="M1601 3173 c1 -34 2 -35 9 -13 11 36 11 50 0 50 -5 0 -10 -17 -9 -37z"/>
<path d="M3720 3200 c-28 -9 -19 -13 20 -10 30 2 53 20 25 19 -11 -1 -31 -5
-45 -9z"/>
<path d="M7032 3183 c-35 -3 -45 -9 -58 -35 -8 -16 -14 -31 -12 -33 4 -4 115
14 161 26 28 7 37 15 35 27 -3 18 -43 23 -126 15z"/>
<path d="M3700 3143 c-55 -8 -71 -14 -65 -23 13 -22 155 1 155 24 0 6 -49 6
-90 -1z"/>
<path d="M2640 3090 c0 -27 4 -50 9 -50 12 0 19 44 13 75 -8 43 -22 27 -22
-25z"/>
<path d="M2912 3098 c-30 -5 -52 -12 -49 -14 8 -8 137 8 137 17 0 11 -17 10
-88 -3z"/>
<path d="M2563 3053 c-24 -2 -43 -9 -43 -15 0 -5 7 -7 16 -4 9 3 33 6 55 6 21
0 39 5 39 10 0 6 -6 9 -12 8 -7 -1 -32 -3 -55 -5z"/>
<path d="M2478 3033 c7 -3 16 -2 19 1 4 3 -2 6 -13 5 -11 0 -14 -3 -6 -6z"/>
<path d="M79 2943 c9 -34 17 -50 19 -39 5 22 -18 96 -28 96 -4 0 0 -26 9 -57z"/>
<path d="M544 2927 l-21 -45 23 -5 c38 -7 45 5 31 52 l-12 43 -21 -45z"/>
<path d="M1651 2950 c-31 -7 -50 -24 -51 -42 0 -5 35 -8 78 -8 56 0 79 4 79
13 0 6 4 20 8 30 6 15 1 17 -36 16 -24 -1 -59 -5 -78 -9z"/>
<path d="M2882 2940 c0 -14 2 -19 5 -12 2 6 2 18 0 25 -3 6 -5 1 -5 -13z"/>
<path d="M3300 2934 c0 -18 7 -47 15 -65 l15 -34 -6 50 c-8 62 -23 94 -24 49z"/>
<path d="M0 2900 c0 -12 9 -30 20 -42 24 -26 26 -9 5 32 -18 35 -25 38 -25 10z"/>
<path d="M3481 2853 c-44 -4 -75 -27 -102 -75 -14 -25 15 -48 61 -48 51 0 56
11 19 46 l-30 29 38 6 c48 9 53 5 53 -37 0 -43 10 -43 48 0 22 25 28 41 25 60
-6 28 -6 28 -112 19z"/>
<path d="M3000 2807 c-14 -7 -26 -21 -28 -30 -3 -17 1 -18 43 -11 l47 7 -4
-37 c-2 -20 -1 -36 3 -36 15 0 87 94 82 107 -7 17 -109 17 -143 0z"/>
<path d="M2660 2783 c-16 -7 -39 -33 -40 -45 0 -5 9 -8 20 -8 14 0 21 -9 25
-37 12 -68 15 -73 46 -73 34 0 34 1 12 97 -17 74 -24 81 -63 66z"/>
<path d="M3210 2763 c0 -12 5 -25 10 -28 13 -8 13 15 0 35 -8 12 -10 11 -10
-7z"/>
<path d="M3137 2717 c-31 -34 -25 -43 16 -28 17 7 27 18 27 30 0 32 -13 31
-43 -2z"/>
<path d="M2990 2734 c0 -20 25 -64 37 -64 24 0 21 18 -7 45 -17 16 -30 24 -30
19z"/>
<path d="M0 2502 l0 -203 71 3 c59 2 74 7 83 23 6 10 17 25 24 33 22 24 14 35
-21 27 -62 -15 -82 -12 -85 12 -3 19 3 23 38 29 40 7 58 18 42 28 -4 2 -25 1
-45 -4 -20 -4 -39 -4 -42 0 -3 5 -15 60 -26 122 -11 62 -24 117 -30 123 -5 5
-9 -66 -9 -193z"/>
<path d="M1728 2693 c6 -2 18 -2 25 0 6 3 1 5 -13 5 -14 0 -19 -2 -12 -5z"/>
<path d="M176 2650 c10 -65 26 -97 18 -35 -3 28 -10 57 -15 65 -6 9 -7 -2 -3
-30z"/>
<path d="M2296 2592 c-22 -25 -20 -32 8 -32 31 0 38 10 22 33 -12 16 -14 16
-30 -1z"/>
<path d="M2890 2590 c0 -5 5 -10 10 -10 6 0 10 5 10 10 0 6 -4 10 -10 10 -5 0
-10 -4 -10 -10z"/>
<path d="M3611 2549 c-48 -9 -81 -33 -81 -59 0 -19 32 -19 150 0 36 5 69 10
74 10 5 0 2 8 -7 18 -10 10 -17 24 -17 30 0 14 -53 14 -119 1z"/>
<path d="M1008 2508 c-10 -27 4 -98 19 -98 11 0 13 12 11 52 -3 48 -20 75 -30
46z"/>
<path d="M3219 2488 c-44 -9 -76 -38 -64 -58 5 -8 129 21 142 34 6 6 -16 37
-26 35 -3 -1 -26 -6 -52 -11z"/>
<path d="M1520 2430 c0 -22 5 -40 10 -40 6 0 10 18 10 40 0 22 -4 40 -10 40
-5 0 -10 -18 -10 -40z"/>
<path d="M3725 2453 c-55 -7 -120 -18 -145 -23 -25 -5 -60 -12 -78 -15 -27 -6
-33 -11 -30 -28 3 -20 8 -22 53 -19 28 2 92 10 142 18 51 8 104 14 119 14 37
0 75 32 62 53 -5 9 -12 16 -16 16 -4 -1 -52 -8 -107 -16z"/>
<path d="M2710 2401 c-24 -45 2 -55 58 -21 43 26 40 40 -8 40 -29 0 -42 -5
-50 -19z"/>
<path d="M3213 2372 c-13 -2 -23 -8 -23 -13 0 -13 37 -11 45 2 9 14 5 16 -22
11z"/>
<path d="M3860 2351 c-27 -5 -36 -11 -38 -30 -4 -23 -3 -24 49 -17 30 4 55 9
57 11 6 5 -18 45 -26 44 -4 -1 -23 -4 -42 -8z"/>
<path d="M2265 2341 c-3 -5 -1 -12 5 -16 5 -3 10 1 10 9 0 18 -6 21 -15 7z"/>
<path d="M207 2325 c-5 -10 0 -15 14 -15 12 0 19 5 17 12 -6 18 -25 20 -31 3z"/>
<path d="M2190 2310 c0 -39 36 -42 50 -4 14 35 14 34 -20 34 -27 0 -30 -3 -30
-30z"/>
<path d="M3565 2331 c-21 -4 -31 -13 -33 -29 -3 -21 0 -22 74 -22 61 0 79 3
90 18 26 34 17 42 -43 41 -32 -1 -71 -4 -88 -8z"/>
<path d="M2435 2320 c-3 -5 -1 -10 4 -10 6 0 11 5 11 10 0 6 -2 10 -4 10 -3 0
-8 -4 -11 -10z"/>
<path d="M2785 2306 c-33 -14 -24 -24 20 -21 17 1 30 7 30 15 0 19 -16 21 -50
6z"/>
<path d="M7400 2286 c-5 -15 -10 -35 -10 -44 1 -9 7 1 15 23 16 44 11 63 -5
21z"/>
<path d="M2668 2293 c-10 -2 -18 -9 -18 -14 0 -14 26 -11 40 6 13 15 9 16 -22
8z"/>
<path d="M1705 2285 c-5 -2 -31 -6 -57 -10 -47 -6 -48 -7 -48 -41 0 -37 7 -40
70 -28 21 5 38 17 51 38 27 44 23 54 -16 41z"/>
<path d="M2429 2265 c-3 -2 -16 -6 -29 -8 -13 -2 -26 -10 -28 -17 -3 -9 1 -11
13 -7 9 4 34 10 56 13 42 7 54 24 16 24 -13 0 -26 -2 -28 -5z"/>
<path d="M3012 2250 c-11 -18 -10 -20 17 -20 24 0 41 14 41 36 0 14 -47 1 -58
-16z"/>
<path d="M2748 2231 c-20 -5 -25 -10 -19 -20 10 -16 66 -8 95 14 18 14 17 14
-15 13 -19 -1 -46 -4 -61 -7z"/>
<path d="M1034 2196 c-13 -33 0 -61 29 -64 27 -3 28 -2 25 35 -2 31 -7 39 -26
41 -13 2 -24 -3 -28 -12z"/>
<path d="M2435 2191 c-45 -10 -14 -23 35 -15 22 4 43 11 46 15 6 10 -36 10
-81 0z"/>
<path d="M3875 2181 c-43 -5 -50 -9 -53 -30 -4 -23 -2 -24 49 -18 33 4 59 14
70 26 32 34 32 34 -66 22z"/>
<path d="M3637 2162 c-54 -3 -58 -5 -55 -25 3 -20 9 -22 58 -23 69 -1 79 3 73
27 -7 25 -7 25 -76 21z"/>
<path d="M1610 2150 c-8 -5 -11 -12 -8 -16 10 -9 58 4 58 16 0 13 -30 13 -50
0z"/>
<path d="M2088 2143 c7 -3 16 -2 19 1 4 3 -2 6 -13 5 -11 0 -14 -3 -6 -6z"/>
<path d="M175 2104 c-55 -8 -115 -15 -134 -17 -19 -1 -36 -8 -39 -16 -3 -10 3
-12 24 -8 16 3 90 9 164 12 126 6 160 14 160 36 0 12 -53 10 -175 -7z"/>
<path d="M1053 2083 c-26 -10 -13 -33 17 -33 23 0 30 4 30 20 0 20 -19 25 -47
13z"/>
<path d="M2877 2063 c-12 -11 -8 -23 8 -23 8 0 15 7 15 15 0 16 -12 20 -23 8z"/>
<path d="M2350 2039 c-120 -15 -152 -56 -39 -51 35 2 71 5 81 8 21 6 54 55 36
53 -7 -1 -42 -5 -78 -10z"/>
<path d="M2530 2035 c-7 -9 -11 -18 -8 -20 9 -10 38 7 38 21 0 18 -14 18 -30
-1z"/>
<path d="M33 2023 c-14 -5 -16 -34 -6 -71 5 -22 9 -23 64 -18 191 19 176 16
189 46 7 16 9 34 5 39 -6 11 -227 15 -252 4z"/>
<path d="M2076 1994 c-4 -14 -4 -29 -1 -32 7 -7 35 30 32 42 -7 21 -25 15 -31
-10z"/>
<path d="M1620 1955 c0 -8 4 -15 9 -15 5 0 11 7 15 15 3 9 0 15 -9 15 -8 0
-15 -7 -15 -15z"/>
<path d="M3458 1963 c12 -2 30 -2 40 0 9 3 -1 5 -23 4 -22 0 -30 -2 -17 -4z"/>
<path d="M3868 1953 c-41 -4 -48 -7 -48 -25 0 -20 3 -20 92 -13 51 3 97 9 102
12 10 7 -62 33 -84 31 -8 -1 -36 -3 -62 -5z"/>
<path d="M3213 1943 c9 -2 25 -2 35 0 9 3 1 5 -18 5 -19 0 -27 -2 -17 -5z"/>
<path d="M3667 1934 c-9 -9 4 -34 18 -34 7 0 15 9 18 20 4 14 0 20 -12 20 -10
0 -20 -3 -24 -6z"/>
<path d="M4038 1933 c7 -3 16 -2 19 1 4 3 -2 6 -13 5 -11 0 -14 -3 -6 -6z"/>
<path d="M3483 1922 c-47 -3 -60 -23 -15 -21 36 1 79 14 67 19 -6 3 -29 4 -52
2z"/>
<path d="M1057 1913 c-4 -3 -7 -19 -7 -35 0 -23 4 -28 24 -28 22 0 56 36 56
60 0 11 -63 14 -73 3z"/>
<path d="M2848 1913 c6 -2 18 -2 25 0 6 3 1 5 -13 5 -14 0 -19 -2 -12 -5z"/>
<path d="M3185 1895 c-5 -2 -31 -6 -57 -10 -35 -4 -46 -10 -42 -20 8 -19 93
-17 117 3 28 24 18 39 -18 27z"/>
<path d="M3263 1888 c-32 -15 -38 -38 -10 -38 23 0 60 33 50 44 -8 8 -13 7
-40 -6z"/>
<path d="M2886 1844 c-18 -26 -18 -26 3 -15 11 7 21 18 21 26 0 20 -2 19 -24
-11z"/>
<path d="M2810 1850 c0 -5 7 -10 15 -10 8 0 15 5 15 10 0 6 -7 10 -15 10 -8 0
-15 -4 -15 -10z"/>
<path d="M2470 1830 c-75 -7 -126 -25 -134 -47 -4 -9 -4 -18 -2 -21 10 -10
190 28 207 44 22 20 25 35 7 32 -7 -1 -42 -4 -78 -8z"/>
<path d="M1670 1760 c0 -11 5 -20 10 -20 6 0 10 9 10 20 0 11 -4 20 -10 20 -5
0 -10 -9 -10 -20z"/>
<path d="M3840 1721 c0 -5 9 -7 20 -4 11 3 20 7 20 9 0 2 -9 4 -20 4 -11 0
-20 -4 -20 -9z"/>
<path d="M1072 1711 c-15 -9 -13 -57 2 -54 5 0 18 15 28 32 19 30 19 31 1 31
-10 0 -24 -4 -31 -9z"/>
<path d="M3590 1700 c-18 -4 -21 -8 -10 -12 17 -6 58 6 44 14 -5 3 -20 2 -34
-2z"/>
<path d="M1152 1688 c-16 -16 -15 -28 3 -28 8 0 15 9 15 20 0 23 -2 24 -18 8z"/>
<path d="M3268 1677 c-76 -5 -138 -13 -138 -18 0 -5 9 -9 19 -9 11 0 22 -4 25
-9 8 -13 86 -2 114 16 15 9 44 13 84 11 42 -2 62 1 65 10 3 7 -3 11 -14 10
-10 0 -80 -6 -155 -11z"/>
<path d="M3848 1663 c6 -2 18 -2 25 0 6 3 1 5 -13 5 -14 0 -19 -2 -12 -5z"/>
<path d="M2955 1625 l-30 -13 31 -1 c17 -1 37 6 44 14 16 20 -3 20 -45 0z"/>
<path d="M2580 1619 c-22 -8 -57 -47 -48 -53 2 -2 22 -1 46 2 36 3 42 7 42 27
0 30 -8 35 -40 24z"/>
<path d="M3258 1593 c7 -3 16 -2 19 1 4 3 -2 6 -13 5 -11 0 -14 -3 -6 -6z"/>
<path d="M2973 1563 c9 -2 23 -2 30 0 6 3 -1 5 -18 5 -16 0 -22 -2 -12 -5z"/>
<path d="M3838 1540 c-16 -10 -15 -14 4 -58 11 -26 23 -49 25 -52 8 -9 23 26
23 57 0 59 -15 74 -52 53z"/>
<path d="M1108 1523 c6 -2 18 -2 25 0 6 3 1 5 -13 5 -14 0 -19 -2 -12 -5z"/>
<path d="M2550 1510 c0 -5 6 -10 14 -10 8 0 18 5 21 10 3 6 -3 10 -14 10 -12
0 -21 -4 -21 -10z"/>
<path d="M3690 1501 c0 -5 5 -13 10 -16 6 -3 10 -2 10 4 0 5 -4 13 -10 16 -5
3 -10 2 -10 -4z"/>
<path d="M1310 1471 c0 -23 35 -30 43 -8 4 10 6 10 6 0 1 -7 8 -13 17 -13 9 0
14 7 12 18 -2 12 -14 18 -41 20 -32 3 -37 0 -37 -17z"/>
<path d="M1107 1450 c3 -11 12 -20 19 -20 8 0 14 9 14 20 0 13 -7 20 -19 20
-14 0 -18 -5 -14 -20z"/>
<path d="M3200 1461 c-30 -9 -31 -3 12 -218 26 -136 34 -163 49 -163 24 0 32
28 14 53 -23 33 -19 72 10 91 40 26 32 63 -12 57 -8 -1 -13 9 -13 24 0 14 4
25 9 25 14 0 98 -66 159 -124 90 -86 108 -94 199 -84 102 11 103 11 103 55 0
29 -14 60 -60 133 -33 52 -60 98 -60 102 0 4 -3 8 -8 8 -4 0 -6 -34 -4 -75 2
-42 1 -96 -3 -120 l-6 -46 -81 76 c-45 41 -87 75 -94 75 -7 0 -14 4 -16 8 -1
5 -27 26 -55 46 -54 39 -62 53 -41 74 9 9 2 12 -32 11 -25 -1 -56 -4 -70 -8z"/>
<path d="M14 1415 c-11 -28 5 -31 108 -19 57 7 122 13 145 13 23 1 45 6 48 11
4 6 -47 10 -145 10 -122 0 -152 -3 -156 -15z"/>
<path d="M1200 1420 c0 -5 5 -10 11 -10 5 0 7 5 4 10 -3 6 -8 10 -11 10 -2 0
-4 -4 -4 -10z"/>
<path d="M2823 1413 c-23 -4 -32 -22 -13 -24 6 -1 15 -2 22 -3 12 -1 42 -209
36 -249 -3 -16 -7 -15 -38 8 l-35 26 -3 -42 c-3 -36 1 -46 25 -65 22 -19 40
-23 89 -24 41 0 63 4 66 13 3 6 1 48 -3 92 -5 59 -16 102 -43 162 -20 45 -36
86 -36 91 0 10 -25 23 -38 21 -4 -1 -17 -4 -29 -6z"/>
<path d="M1320 1390 c0 -5 5 -10 10 -10 6 0 10 5 10 10 0 6 -4 10 -10 10 -5 0
-10 -4 -10 -10z"/>
<path d="M1365 1390 c-3 -5 1 -10 9 -10 9 0 16 5 16 10 0 6 -4 10 -9 10 -6 0
-13 -4 -16 -10z"/>
<path d="M2493 1355 c-21 -19 -23 -24 -8 -18 33 11 57 30 46 37 -5 4 -22 -5
-38 -19z"/>
<path d="M624 1353 l-102 -4 -11 -29 c-6 -17 -16 -44 -22 -60 -7 -17 -10 -33
-7 -35 4 -5 144 20 182 31 27 9 99 82 91 94 -3 5 -12 9 -18 8 -7 -1 -58 -4
-113 -5z"/>
<path d="M188 1322 l-188 -15 0 -94 c0 -76 3 -93 15 -93 8 0 15 8 15 18 1 9 7
28 15 42 l14 25 1 -32 c0 -41 -3 -41 181 -4 212 43 193 35 212 95 10 29 17 58
17 64 0 15 -37 14 -282 -6z"/>
<path d="M4237 1244 c-13 -13 -7 -54 7 -54 19 0 48 29 43 44 -4 13 -40 20 -50
10z"/>
<path d="M4780 1175 c0 -2 9 -19 20 -37 l20 -33 0 38 c0 30 -4 37 -20 37 -11
0 -20 -2 -20 -5z"/>
<path d="M800 1139 c-12 -16 -19 -33 -16 -36 8 -9 82 26 102 48 16 18 15 19
-24 19 -34 0 -44 -5 -62 -31z"/>
<path d="M4476 1151 l-48 -6 0 -60 c0 -33 1 -66 1 -72 1 -9 19 -13 55 -13 52
0 54 1 60 31 11 56 7 129 -6 127 -7 0 -35 -4 -62 -7z"/>
<path d="M653 1131 c-68 -14 -89 -23 -118 -51 -59 -57 -47 -70 71 -70 79 0
114 11 114 35 0 15 4 26 28 72 21 40 23 39 -95 14z"/>
<path d="M4222 1117 c-11 -13 -29 -76 -19 -66 8 7 38 79 33 79 -2 0 -8 -6 -14
-13z"/>
<path d="M828 1071 c-37 -25 -67 -49 -68 -52 0 -4 14 -9 31 -13 42 -8 159 -8
159 1 0 21 -37 113 -45 112 -5 -1 -40 -22 -77 -48z"/>
<path d="M4105 1077 c-12 -75 -5 -92 35 -92 l35 0 3 68 3 67 -35 0 c-33 0 -35
-2 -41 -43z"/>
<path d="M458 1093 c-11 -3 -18 -14 -18 -29 0 -25 0 -25 25 -7 35 26 31 44 -7
36z"/>
<path d="M300 1060 c-43 -17 -44 -18 -19 -25 14 -3 45 -5 70 -3 37 2 45 7 47
26 3 18 -1 22 -25 21 -15 0 -48 -8 -73 -19z"/>
<path d="M3655 1072 c-55 -5 -62 -16 -26 -43 17 -12 31 -31 31 -40 0 -40 21
-27 45 27 30 67 29 63 8 61 -10 -1 -36 -3 -58 -5z"/>
<path d="M3260 1005 c0 -14 5 -25 10 -25 6 0 10 11 10 25 0 14 -4 25 -10 25
-5 0 -10 -11 -10 -25z"/>
<path d="M36 983 c-2 -16 -8 -63 -11 -105 -4 -43 -11 -80 -16 -84 -5 -3 -9
-14 -9 -25 0 -20 4 -20 193 -14 105 3 199 8 207 10 8 3 107 11 220 20 113 8
235 18 272 21 l66 6 -1 68 -1 68 -95 6 c-53 3 -143 8 -201 11 -58 3 -201 10
-318 16 -117 6 -226 8 -242 4 -22 -5 -32 -3 -36 9 -9 24 -22 19 -28 -11z m191
-95 c-2 -13 -4 -5 -4 17 -1 22 1 32 4 23 2 -10 2 -28 0 -40z"/>
<path d="M4720 870 c0 -7 14 -8 38 -4 51 9 53 14 4 14 -23 0 -42 -5 -42 -10z"/>
<path d="M4426 851 c-9 -14 23 -22 60 -15 53 10 50 24 -5 24 -27 0 -52 -4 -55
-9z"/>
<path d="M3866 805 c-3 -9 1 -18 9 -21 23 -9 50 0 53 19 3 13 -3 17 -26 17
-18 0 -32 -6 -36 -15z"/>
<path d="M4705 803 c-11 -3 -24 -10 -30 -15 -12 -13 141 -1 164 12 17 10 -96
12 -134 3z"/>
<path d="M4427 773 c-10 -3 -16 -10 -14 -16 7 -19 107 -6 107 13 0 10 -59 12
-93 3z"/>
<path d="M835 744 c-447 -48 -531 -59 -460 -62 39 -2 120 4 180 12 61 9 175
22 254 31 133 14 161 20 150 28 -2 2 -58 -2 -124 -9z"/>
<path d="M4180 740 c-9 -16 -8 -20 5 -20 8 0 15 9 15 20 0 11 -2 20 -5 20 -2
0 -9 -9 -15 -20z"/>
<path d="M4667 734 c-54 -7 -112 -20 -128 -28 -16 -8 -29 -10 -29 -5 0 12 -57
11 -81 -1 -11 -6 -19 -21 -19 -35 0 -22 5 -25 33 -25 75 0 198 20 222 36 22
14 28 15 35 4 6 -9 26 -11 75 -8 36 3 68 7 69 9 2 2 1 19 -1 37 -5 30 -8 32
-42 31 -20 -1 -80 -7 -134 -15z"/>
<path d="M3898 722 c-20 -2 -28 -9 -28 -23 0 -15 7 -19 35 -19 28 0 35 4 35
19 0 24 -7 28 -42 23z"/>
<path d="M4002 711 c2 -7 7 -12 11 -12 12 1 9 15 -3 20 -7 2 -11 -2 -8 -8z"/>
<path d="M3820 684 c0 -8 5 -12 10 -9 6 3 10 10 10 16 0 5 -4 9 -10 9 -5 0
-10 -7 -10 -16z"/>
<path d="M1653 622 c-17 -2 -34 -10 -37 -18 -7 -19 57 -19 73 0 15 18 5 22
-36 18z"/>
<path d="M1360 590 c0 -5 15 -10 34 -10 19 0 38 5 41 10 4 6 -10 10 -34 10
-23 0 -41 -4 -41 -10z"/>
<path d="M2530 565 c0 -31 3 -35 25 -35 18 0 26 7 31 24 8 32 -2 46 -32 46
-21 0 -24 -5 -24 -35z"/>
<path d="M2424 583 c-6 -5 -9 -24 -6 -45 4 -36 5 -37 36 -31 43 8 50 17 39 50
-10 28 -45 42 -69 26z"/>
<path d="M1620 535 c0 -8 4 -15 9 -15 5 0 11 7 15 15 3 9 0 15 -9 15 -8 0 -15
-7 -15 -15z"/>
<path d="M0 450 l0 -90 35 0 c29 0 39 6 61 40 31 46 36 49 34 18 -6 -65 -18
-62 178 -54 97 3 275 9 394 13 119 3 222 9 228 13 6 4 12 36 13 71 l2 64 -370
1 c-204 0 -417 4 -473 8 l-102 7 0 -91z m60 36 c0 -8 -5 -18 -10 -21 -6 -3
-10 3 -10 14 0 12 5 21 10 21 6 0 10 -6 10 -14z m157 -38 c-3 -7 -5 -2 -5 12
0 14 2 19 5 13 2 -7 2 -19 0 -25z"/>
<path d="M1354 526 c-8 -21 -1 -59 12 -63 12 -4 46 62 37 71 -12 11 -44 6 -49
-8z"/>
<path d="M1966 499 l-38 -40 44 3 c42 3 43 4 46 41 2 20 -1 37 -6 37 -5 0 -26
-18 -46 -41z"/>
<path d="M1083 522 c-6 -4 -12 -34 -14 -67 l-4 -60 34 3 c19 1 37 5 39 7 6 6
-28 114 -37 119 -4 3 -12 2 -18 -2z m8 -68 c-7 -31 -9 -34 -10 -12 -1 27 9 62
15 55 3 -2 0 -22 -5 -43z"/>
<path d="M2640 459 c0 -24 3 -30 16 -25 9 3 20 6 25 6 5 0 9 11 9 25 0 20 -5
25 -25 25 -21 0 -25 -5 -25 -31z"/>
<path d="M2424 456 c-3 -8 -4 -23 -2 -33 3 -15 11 -17 48 -14 62 5 89 16 86
38 -2 15 -14 19 -65 21 -47 2 -63 0 -67 -12z"/>
<path d="M2235 453 c-59 -5 -66 -10 -67 -50 -1 -35 -16 -35 -82 4 -50 28 -175
33 -196 8 -11 -13 -9 -79 3 -91 4 -5 311 41 349 52 10 3 18 18 21 37 l4 32 1
-33 c2 -36 -9 -35 107 -16 l36 5 -18 30 c-19 31 -23 32 -158 22z"/>
<path d="M2633 380 c-3 -11 -9 -20 -13 -20 -10 0 -30 -47 -30 -70 0 -15 -7
-20 -25 -20 -24 0 -25 3 -25 55 0 63 2 62 -104 45 -34 -5 -119 -17 -191 -26
-71 -9 -132 -18 -134 -20 -3 -3 4 -11 15 -20 18 -15 17 -15 -16 -10 -18 4 -37
11 -41 17 -5 8 -21 8 -58 0 -29 -6 -65 -11 -81 -11 -34 0 -37 -14 -32 -147 l3
-82 105 -3 c138 -4 137 -22 -1 -26 -97 -2 -105 -4 -105 -22 0 -20 9 -20 394
-20 l394 0 4 24 c3 14 1 29 -5 35 -5 5 -6 15 -1 23 5 7 9 82 10 166 l0 152
-29 0 c-20 0 -30 -6 -34 -20z m-376 -167 c-3 -10 -5 -4 -5 12 0 17 2 24 5 18
2 -7 2 -21 0 -30z m178 -66 c6 -20 16 -42 23 -49 19 -19 14 -35 -18 -58 -16
-12 -30 -17 -30 -11 0 7 -35 11 -96 11 -72 0 -95 3 -92 13 3 7 37 15 93 19 48
4 90 10 93 12 2 3 -9 11 -25 19 -15 8 -39 25 -52 36 l-24 21 46 0 c36 0 47 4
47 16 0 28 25 8 35 -29z m125 -69 c0 -26 -23 -49 -36 -35 -9 9 -16 68 -10 84
10 25 46 -14 46 -49z"/>
<path d="M645 349 c-82 -5 -172 -11 -200 -14 l-50 -6 3 -74 c3 -70 2 -75 -17
-75 -19 0 -21 6 -21 75 l0 75 -74 0 c-40 0 -94 -3 -120 -6 -45 -7 -46 -7 -46
-43 0 -63 -16 -69 -31 -12 -13 50 -13 51 -52 51 -33 0 -38 -3 -34 -17 3 -10
17 -57 30 -104 14 -48 30 -96 36 -107 6 -11 12 -37 13 -56 l3 -36 203 0 c156
0 209 3 231 14 34 18 207 76 241 80 50 8 200 50 200 57 0 4 -8 9 -17 11 -14 2
-17 13 -14 55 l2 53 -48 -5 -48 -4 25 19 c14 11 37 25 53 32 15 7 27 21 27 30
0 21 -33 21 -295 7z m181 -115 c-9 -8 -16 -24 -16 -35 0 -22 -11 -24 -28 -7
-18 18 -15 34 11 46 35 17 51 15 33 -4z m39 -72 c-3 -3 -11 0 -18 7 -9 10 -8
11 6 5 10 -3 15 -9 12 -12z m-693 -124 c-6 -6 -7 0 -4 19 5 21 7 23 10 9 2
-10 0 -22 -6 -28z"/>
<path d="M1093 330 l-43 -19 0 -72 0 -71 48 7 c99 14 101 15 83 71 -5 16 -12
46 -16 67 -7 42 -14 44 -72 17z"/>
<path d="M1711 235 c-39 -36 -41 -40 -41 -96 0 -39 -4 -58 -11 -57 -6 2 -14
-3 -16 -9 -3 -8 4 -13 16 -13 17 0 21 -6 21 -30 0 -30 1 -30 55 -30 54 0 55 0
55 30 0 22 -5 30 -17 30 -15 0 -15 2 -4 9 11 7 13 27 9 89 -4 44 -10 88 -16
97 -8 16 -14 13 -51 -20z m2 -162 c-7 -2 -19 -2 -25 0 -7 3 -2 5 12 5 14 0 19
-2 13 -5z"/>
<path d="M1367 170 c-3 -11 -1 -20 4 -20 5 0 9 2 9 4 0 2 3 11 6 20 3 9 2 16
-4 16 -5 0 -12 -9 -15 -20z"/>
<path d="M1125 135 c-36 -12 -37 -15 -6 -19 13 -1 26 -16 15 -16 -5 0 -26 4
-47 9 -43 10 -43 10 -50 -61 l-5 -48 52 0 51 1 38 64 c20 35 37 69 37 75 0 13
-36 12 -85 -5z"/>
<path d="M3444 128 c-5 -7 -21 -39 -36 -70 l-27 -58 28 0 c25 0 29 5 47 63 10
34 18 64 17 67 -4 11 -22 10 -29 -2z"/>
<path d="M1 58 c-1 -32 3 -58 8 -58 5 0 6 21 4 47 -7 71 -11 75 -12 11z"/>
<path d="M825 68 c-44 -11 -82 -23 -85 -27 -3 -3 -20 -7 -38 -9 -18 -2 -50
-10 -70 -17 -34 -12 -23 -14 126 -14 l162 -1 0 45 c0 25 -3 45 -7 44 -5 0 -44
-10 -88 -21z"/>
<path d="M1500 79 c-25 -9 -25 -9 3 -5 18 2 27 -1 27 -11 0 -17 -24 -43 -39
-43 -6 0 -11 -4 -11 -9 0 -5 20 -9 44 -8 44 1 45 1 40 31 -11 61 -13 63 -64
45z"/>
</g>
</svg>
